<!-- Generated by IcoMoon.io -->
<svg version="1.1" xmlns="http://www.w3.org/2000/svg" width="32" height="32" viewBox="0 0 32 32">
<path d="M12.686 6.853h-6.447c-1.301 0-2.549 0.517-3.469 1.437s-1.437 2.168-1.437 3.469v8.478c0 1.301 0.517 2.549 1.437 3.469s2.168 1.437 3.469 1.437h6.466l-1.56-2.208-4.715-1.442c-0.416-0.133-0.779-0.394-1.035-0.747s-0.394-0.779-0.392-1.215v-7.035c-0.003-0.437 0.133-0.863 0.39-1.216s0.621-0.615 1.037-0.746l4.715-1.472 1.54-2.208zM25.785 6.853h-6.466l1.56 2.208 4.715 1.472c0.416 0.131 0.779 0.393 1.035 0.746s0.392 0.78 0.388 1.216v7.035c0.003 0.436-0.134 0.862-0.389 1.215s-0.618 0.615-1.033 0.748l-4.715 1.442-1.56 2.208h6.466c0.643 0.001 1.28-0.126 1.875-0.373s1.134-0.608 1.587-1.064 0.813-0.997 1.056-1.593c0.244-0.595 0.367-1.233 0.363-1.876v-8.478c0-1.297-0.513-2.541-1.428-3.46s-2.156-1.439-3.453-1.446zM20.889 14.85h-9.773v2.203h9.773v-2.203z"></path>
</svg>
