<!-- Generated by IcoMoon.io -->
<svg version="1.1" xmlns="http://www.w3.org/2000/svg" width="32" height="32" viewBox="0 0 32 32">
<path d="M28.563 20.477c-5.106-1.537-8.074-2.453-8.905-2.749 0.757-1.301 1.365-2.795 1.76-4.427h-4.352v-1.472h5.333v-0.907h-5.333v-2.464h-2.048c-0.373 0-0.416 0.331-0.416 0.331v2.123h-5.003v0.907h5.003v1.472h-4.096v0.821h8.299c-0.299 1.035-0.704 2.016-1.184 2.901-1.877-0.619-2.923-1.045-5.216-1.259-4.341-0.416-5.344 1.973-5.504 3.435-0.235 2.229 1.739 4.043 4.683 4.043s4.907-1.365 6.773-3.627c1.555 0.744 4.451 2.034 8.685 3.87-2.398 3.535-6.449 5.858-11.043 5.858-7.364 0-13.333-5.97-13.333-13.333s5.97-13.333 13.333-13.333c7.364 0 13.333 5.97 13.333 13.333 0 1.57-0.271 3.077-0.77 4.477zM11.243 21.824c-3.115 0-3.605-1.973-3.445-2.795s1.067-1.888 2.805-1.888c1.995 0 3.776 0.512 5.92 1.547-1.515 1.973-3.36 3.136-5.28 3.136z"></path>
</svg>
