<!-- Generated by IcoMoon.io -->
<svg version="1.1" xmlns="http://www.w3.org/2000/svg" width="32" height="32" viewBox="0 0 32 32">
<path d="M29.329 24.306c0 0.97-0.54 2.837-1.753 3.863-0.243 0.187-0.486 0.081-0.379-0.191 0.353-0.864 1.162-2.863 0.783-3.322-0.268-0.349-1.375-0.324-2.318-0.243-0.431 0.055-0.809 0.081-1.103 0.139-0.272 0.023-0.327-0.216-0.055-0.404 0.349-0.247 0.727-0.434 1.161-0.57 1.533-0.459 3.305-0.183 3.559 0.11 0.049 0.057 0.106 0.214 0.106 0.618zM26.767 26.033c-0.349 0.269-0.727 0.515-1.106 0.732-2.83 1.701-6.495 2.591-9.678 2.591-5.123 0-9.706-1.889-13.183-5.050-0.298-0.243-0.052-0.596 0.297-0.405 3.746 2.187 8.384 3.51 13.184 3.51 3.021 0 6.278-0.565 9.38-1.782 0.216-0.081 0.459-0.191 0.672-0.268 0.489-0.221 0.919 0.323 0.434 0.672zM18.54 11.326c0.001-1.39 0.056-2.207-0.404-2.908-0.409-0.577-1.11-0.923-2.091-0.869-1.064 0.059-2.207 0.757-2.499 2.035-0.056 0.292-0.228 0.58-0.581 0.644l-3.248-0.413c-0.232-0.055-0.585-0.231-0.469-0.696 0.697-3.669 3.833-4.948 6.797-5.12h0.697c1.627 0 3.717 0.465 5.055 1.686 1.622 1.514 1.449 3.549 1.449 5.761v5.235c0 1.57 0.637 2.266 1.277 3.085 0.173 0.292 0.232 0.637-0.059 0.873-0.641 0.58-1.859 1.625-2.556 2.206-0.232 0.177-0.651 0.196-0.813 0.061-1.026-0.861-1.277-1.338-1.914-2.211-1.106 1.162-2.035 1.803-3.141 2.151-0.697 0.177-1.449 0.289-2.379 0.289-2.787 0-4.994-1.738-4.994-5.175 0-2.731 1.454-4.589 3.6-5.468s5.266-1.16 6.273-1.165zM17.904 18.248c0.693-1.162 0.637-2.115 0.637-4.246-0.869 0-1.742 0.061-2.495 0.237-1.393 0.404-2.499 1.282-2.499 3.141 0 1.454 0.757 2.443 2.034 2.443 0.176 0 0.33-0.022 0.465-0.059 0.892-0.249 1.45-0.697 1.859-1.514z"></path>
</svg>
