<!-- Generated by IcoMoon.io -->
<svg version="1.1" xmlns="http://www.w3.org/2000/svg" width="32" height="32" viewBox="0 0 32 32">
<path d="M8.51 5.291c2.053-1.642 4.657-2.624 7.49-2.624s5.437 0.982 7.49 2.624l1.938-1.938 1.886 1.886-1.938 1.938c1.642 2.053 2.624 4.657 2.624 7.49v1.333h-24v-1.333c0-2.833 0.982-5.437 2.624-7.49l-1.938-1.938 1.886-1.886 1.938 1.938zM4 18.667h24v9.333c0 0.736-0.597 1.333-1.333 1.333h-21.333c-0.736 0-1.333-0.597-1.333-1.333v-9.333zM12 12c0.736 0 1.333-0.597 1.333-1.333s-0.597-1.333-1.333-1.333c-0.736 0-1.333 0.597-1.333 1.333s0.597 1.333 1.333 1.333zM20 12c0.736 0 1.333-0.597 1.333-1.333s-0.597-1.333-1.333-1.333c-0.736 0-1.333 0.597-1.333 1.333s0.597 1.333 1.333 1.333z"></path>
</svg>
