<!-- Generated by IcoMoon.io -->
<svg version="1.1" xmlns="http://www.w3.org/2000/svg" width="32" height="32" viewBox="0 0 32 32">
<path d="M16 2.667c7.364 0 13.333 5.97 13.333 13.333s-5.97 13.333-13.333 13.333c-7.364 0-13.333-5.97-13.333-13.333s5.97-13.333 13.333-13.333zM11.763 20.457c-0.526-0.635-1.18-0.863-1.971-0.678l-0.201 0.055-0.785 1.355c-0.301 0.527-0.124 1.199 0.403 1.5 0.483 0.276 1.088 0.15 1.417-0.279l0.083-0.124 1.054-1.828zM17.613 11.548c-0.651 0.538-1.307 2.129-0.387 3.715l4.054 7.021c0.306 0.527 0.973 0.704 1.5 0.403 0.483-0.281 0.672-0.865 0.469-1.366l-0.065-0.134-1.070-1.855h1.586c0.607 0 1.097-0.489 1.097-1.097 0-0.561-0.417-1.021-0.959-1.088l-0.138-0.009h-2.855l-2.924-5.063-0.307-0.528zM17.984 7.489c-0.483-0.276-1.088-0.15-1.417 0.279l-0.083 0.124-0.489 0.844-0.479-0.844c-0.306-0.527-0.973-0.704-1.5-0.403-0.483 0.281-0.672 0.864-0.469 1.366l0.065 0.134 1.118 1.941-3.581 6.204h-2.796c-0.608 0-1.097 0.489-1.097 1.097 0 0.561 0.417 1.021 0.959 1.088l0.138 0.009h9.973c0.455-0.853-0.081-2.065-1.080-2.184l-0.162-0.009h-3.403l4.704-8.145c0.301-0.527 0.124-1.199-0.403-1.5z"></path>
</svg>
