<!-- Generated by IcoMoon.io -->
<svg version="1.1" xmlns="http://www.w3.org/2000/svg" width="32" height="32" viewBox="0 0 32 32">
<path d="M7.902 16.662c2.75-0.591 2.376-3.878 2.293-4.596-0.135-1.108-1.437-3.043-3.206-2.89-2.226 0.2-2.551 3.415-2.551 3.415-0.301 1.486 0.721 4.662 3.464 4.071zM10.823 22.379c-0.081 0.231-0.26 0.822-0.105 1.337 0.307 1.155 1.309 1.207 1.309 1.207h1.44v-3.521h-1.542c-0.693 0.207-1.028 0.746-1.102 0.977zM13.007 11.15c1.519 0 2.747-1.748 2.747-3.91 0-2.159-1.228-3.907-2.747-3.907-1.517 0-2.748 1.748-2.748 3.907 0 2.162 1.231 3.91 2.748 3.91zM19.55 11.409c2.030 0.264 3.336-1.903 3.595-3.545 0.265-1.64-1.045-3.545-2.483-3.872-1.44-0.33-3.239 1.977-3.403 3.481-0.196 1.839 0.263 3.676 2.29 3.937zM19.549 16.005c-2.486-3.873-6.017-2.297-7.198-0.327-1.176 1.969-3.009 3.215-3.269 3.545-0.264 0.325-3.795 2.231-3.011 5.712 0.783 3.479 3.536 3.413 3.536 3.413s2.029 0.2 4.382-0.327c2.354-0.522 4.381 0.13 4.381 0.13s5.499 1.842 7.004-1.703c1.503-3.546-0.85-5.385-0.85-5.385s-3.141-2.43-4.975-5.057zM11.54 26.338c-1.544-0.308-2.159-1.361-2.236-1.541-0.076-0.182-0.515-1.029-0.283-2.47 0.667-2.159 2.57-2.314 2.57-2.314h1.903v-2.339l1.621 0.025v8.639h-3.575zM17.66 26.313c-1.595-0.411-1.669-1.544-1.669-1.544v-4.549l1.669-0.027v4.089c0.102 0.436 0.644 0.515 0.644 0.515h1.695v-4.577h1.775v6.093h-4.114zM27.598 14.167c0-0.786-0.653-3.152-3.073-3.152-2.425 0-2.749 2.233-2.749 3.811 0 1.506 0.127 3.609 3.139 3.543 3.013-0.067 2.683-3.412 2.683-4.202z"></path>
</svg>
