<!-- Generated by IcoMoon.io -->
<svg version="1.1" xmlns="http://www.w3.org/2000/svg" width="32" height="32" viewBox="0 0 32 32">
<path d="M14.153 23.727l1.17-2.68c1.041-2.385 2.916-4.284 5.254-5.322l3.221-1.43c1.024-0.455 1.024-1.944 0-2.399l-3.12-1.385c-2.398-1.065-4.306-3.034-5.33-5.5l-1.185-2.856c-0.44-1.060-1.904-1.060-2.344 0l-1.185 2.856c-1.024 2.467-2.932 4.435-5.33 5.5l-3.12 1.385c-1.024 0.455-1.024 1.944 0 2.399l3.221 1.43c2.338 1.038 4.213 2.937 5.254 5.322l1.17 2.68c0.45 1.030 1.875 1.030 2.325 0zM25.869 30.253l0.329-0.754c0.587-1.345 1.643-2.416 2.962-3.001l1.014-0.451c0.548-0.244 0.548-1.041 0-1.284l-0.957-0.425c-1.352-0.601-2.428-1.711-3.005-3.102l-0.338-0.815c-0.236-0.568-1.021-0.568-1.257 0l-0.338 0.815c-0.577 1.391-1.652 2.501-3.005 3.102l-0.957 0.425c-0.548 0.244-0.548 1.041 0 1.284l1.014 0.451c1.319 0.586 2.375 1.657 2.962 3.001l0.329 0.754c0.241 0.552 1.005 0.552 1.246 0z"></path>
</svg>
