<!-- Generated by IcoMoon.io -->
<svg version="1.1" xmlns="http://www.w3.org/2000/svg" width="32" height="32" viewBox="0 0 32 32">
<path d="M9.924 7.133c0.852 0 1.639 0.066 2.361 0.264 0.721 0.132 1.311 0.396 1.836 0.726s0.918 0.791 1.18 1.385 0.393 1.319 0.393 2.111c0 0.923-0.197 1.715-0.656 2.309-0.393 0.594-1.049 1.121-1.836 1.517 1.115 0.33 1.967 0.923 2.492 1.715s0.852 1.781 0.852 2.902c0 0.923-0.197 1.715-0.525 2.375s-0.853 1.253-1.443 1.649c-0.59 0.396-1.311 0.725-2.098 0.923s-1.574 0.33-2.361 0.33h-8.787v-18.205h8.59zM9.399 14.521c0.721 0 1.311-0.198 1.771-0.528s0.656-0.924 0.656-1.649c0-0.396-0.066-0.792-0.197-1.055s-0.328-0.462-0.59-0.66c-0.262-0.132-0.525-0.264-0.852-0.33s-0.656-0.066-1.049-0.066h-3.803v4.287h4.066zM9.596 22.304c0.393 0 0.787-0.066 1.115-0.132s0.656-0.198 0.918-0.396 0.459-0.396 0.656-0.726c0.131-0.33 0.262-0.725 0.262-1.187 0-0.923-0.262-1.583-0.787-2.045-0.525-0.396-1.246-0.594-2.098-0.594h-4.328v5.079h4.262zM22.251 22.238c0.525 0.528 1.311 0.791 2.361 0.791 0.721 0 1.377-0.198 1.902-0.528 0.525-0.396 0.853-0.792 0.984-1.187h3.213c-0.525 1.583-1.311 2.704-2.361 3.43-1.049 0.66-2.295 1.055-3.803 1.055-1.049 0-1.967-0.198-2.82-0.528s-1.508-0.791-2.098-1.451c-0.59-0.594-1.049-1.319-1.311-2.177-0.328-0.857-0.459-1.781-0.459-2.836 0-0.989 0.131-1.913 0.459-2.77s0.787-1.583 1.377-2.243c0.59-0.594 1.311-1.121 2.098-1.451 0.852-0.33 1.705-0.528 2.754-0.528 1.115 0 2.098 0.198 2.951 0.66s1.508 0.989 2.033 1.781c0.525 0.726 0.918 1.583 1.18 2.507 0.131 0.923 0.197 1.847 0.131 2.902h-9.508c0 1.055 0.393 2.045 0.918 2.572zM26.383 15.312c-0.459-0.462-1.18-0.726-2.033-0.726-0.59 0-1.049 0.132-1.443 0.33s-0.656 0.462-0.918 0.726c-0.262 0.264-0.393 0.594-0.459 0.923s-0.131 0.594-0.131 0.857h5.902c-0.131-0.989-0.459-1.649-0.918-2.111zM20.612 8.387h7.344v1.781h-7.344v-1.781z"></path>
</svg>
