<!-- Generated by IcoMoon.io -->
<svg version="1.1" xmlns="http://www.w3.org/2000/svg" width="32" height="32" viewBox="0 0 32 32">
<path d="M24.297 4.115c0.651 0.651 0.651 1.706 0 2.357l-1.524 1.523 1.56 0.001c2.761 0 5 2.239 5 5v10c0 2.761-2.239 5-5 5h-16.667c-2.761 0-5-2.239-5-5v-10c0-2.761 2.239-5 5-5l1.555-0.001-1.522-1.522c-0.651-0.651-0.651-1.706 0-2.357s1.706-0.651 2.357 0l3.536 3.536c0.105 0.105 0.193 0.221 0.264 0.344l4.283 0c0.071-0.123 0.16-0.24 0.265-0.345l3.536-3.536c0.651-0.651 1.706-0.651 2.357 0zM24.333 11.342h-16.667c-0.879 0-1.598 0.68-1.662 1.542l-0.005 0.124v10c0 0.879 0.68 1.599 1.542 1.662l0.124 0.005h16.667c0.879 0 1.599-0.68 1.662-1.542l0.005-0.124v-10c0-0.92-0.746-1.667-1.667-1.667zM11 14.675c0.92 0 1.667 0.746 1.667 1.667v1.667c0 0.921-0.746 1.667-1.667 1.667s-1.667-0.746-1.667-1.667v-1.667c0-0.92 0.746-1.667 1.667-1.667zM21 14.675c0.921 0 1.667 0.746 1.667 1.667v1.667c0 0.921-0.746 1.667-1.667 1.667s-1.667-0.746-1.667-1.667v-1.667c0-0.92 0.746-1.667 1.667-1.667z"></path>
</svg>
