<!-- Generated by IcoMoon.io -->
<svg version="1.1" xmlns="http://www.w3.org/2000/svg" width="32" height="32" viewBox="0 0 32 32">
<path d="M10.386 20.952c-0.191-0.607-0.319-1.385-0.326-1.785-0.007-0.399 0.081-1.063 0.081-1.063l-6.012 4.92c-1.050 0.848-2.462 0.847-3.126-0.005-0.654-0.837-0.319-2.16 0.72-2.956l11.057-8.486-6.171 0.008c-1.047-0.004-1.73-0.709-1.533-1.559 0.191-0.835 1.159-1.495 2.166-1.496l12.195-0.013-3.993-3.252c-0.622-0.51-0.542-1.319 0.157-1.808 0.691-0.484 1.748-0.485 2.377-0.003l9.603 7.377c0.949 0.736 1.748 1.611 2.367 2.61 0.677 1.087 1.117 2.28 1.298 3.551 0.093 0.652 0.114 1.305 0.063 1.957-0.051 0.661-0.18 1.321-0.382 1.971-0.404 1.286-1.085 2.477-2.034 3.53-0.973 1.078-2.172 1.947-3.559 2.568-1.457 0.65-3.036 0.986-4.673 0.988-1.64 0.003-3.219-0.326-4.676-0.971-1.386-0.614-2.587-1.48-3.561-2.557-0.95-1.048-1.632-2.238-2.035-3.523zM20.658 23.372c1.876-0.004 3.611-0.719 4.849-1.981 0.605-0.617 1.048-1.323 1.323-2.078 0.269-0.74 0.373-1.524 0.305-2.315-0.068-0.776-0.297-1.512-0.666-2.179-0.361-0.656-0.858-1.247-1.472-1.747-1.205-0.978-2.737-1.504-4.342-1.502-1.603 0.002-3.136 0.533-4.34 1.515-0.615 0.502-1.112 1.095-1.473 1.752-0.368 0.668-0.598 1.406-0.664 2.18-0.069 0.792 0.035 1.577 0.304 2.316 0.274 0.752 0.719 1.459 1.324 2.073 1.239 1.26 2.973 1.969 4.852 1.966zM17.967 14.538c0.741-0.627 1.738-1.011 2.827-1.011 1.087 0 2.085 0.384 2.826 1.011 0.755 0.639 1.256 1.54 1.314 2.562 0.057 1.051-0.365 2.027-1.106 2.751-0.756 0.736-1.83 1.198-3.034 1.198s-2.28-0.462-3.035-1.198c-0.742-0.724-1.163-1.7-1.105-2.75 0.057-1.023 0.558-1.924 1.314-2.563zM17.967 14.538c-0.756 0.639-1.257 1.54-1.314 2.563-0.058 1.050 0.363 2.026 1.105 2.75 0.755 0.736 1.832 1.198 3.035 1.198s2.278-0.462 3.034-1.198c0.741-0.724 1.163-1.7 1.106-2.751-0.058-1.022-0.559-1.923-1.314-2.562-0.742-0.627-1.739-1.011-2.826-1.011-1.088 0-2.086 0.384-2.827 1.011zM10.386 20.952c-0.191-0.607-0.319-1.385-0.326-1.785-0.007-0.399 0.081-1.063 0.081-1.063l-6.012 4.92c-1.050 0.848-2.462 0.847-3.126-0.005-0.654-0.837-0.319-2.16 0.72-2.956l11.057-8.486-6.171 0.008c-1.047-0.004-1.73-0.709-1.533-1.559 0.191-0.835 1.159-1.495 2.166-1.496l12.195-0.013-3.993-3.252c-0.622-0.51-0.542-1.319 0.157-1.808 0.691-0.484 1.748-0.485 2.377-0.003l9.603 7.377c0.949 0.736 1.748 1.611 2.367 2.61 0.677 1.087 1.117 2.28 1.298 3.551 0.093 0.652 0.114 1.305 0.063 1.957-0.051 0.661-0.18 1.321-0.382 1.971-0.404 1.286-1.085 2.477-2.034 3.53-0.973 1.078-2.172 1.947-3.559 2.568-1.457 0.65-3.036 0.986-4.673 0.988-1.64 0.003-3.219-0.326-4.676-0.971-1.386-0.614-2.587-1.48-3.561-2.557-0.95-1.048-1.632-2.238-2.035-3.523zM20.658 23.372c1.876-0.004 3.611-0.719 4.849-1.981 0.605-0.617 1.048-1.323 1.323-2.078 0.269-0.74 0.373-1.524 0.305-2.315-0.068-0.776-0.297-1.512-0.666-2.179-0.361-0.656-0.858-1.247-1.472-1.747-1.205-0.978-2.737-1.504-4.342-1.502-1.603 0.002-3.136 0.533-4.34 1.515-0.615 0.502-1.112 1.095-1.473 1.752-0.368 0.668-0.598 1.406-0.664 2.18-0.069 0.792 0.035 1.577 0.304 2.316 0.274 0.752 0.719 1.459 1.324 2.073 1.239 1.26 2.973 1.969 4.852 1.966z"></path>
</svg>
