<!-- Generated by IcoMoon.io -->
<svg version="1.1" xmlns="http://www.w3.org/2000/svg" width="32" height="32" viewBox="0 0 32 32">
<path d="M26.43 12.972h-1.458c-0.785 0-1.458-0.673-1.458-1.458 0-4.15-3.365-7.514-7.514-7.514h-4.486c-4.15 0-7.514 3.364-7.514 7.514v8.972c0 4.149 3.364 7.514 7.514 7.514h8.972c4.149 0 7.514-3.365 7.514-7.514v-5.944c0-0.897-0.673-1.57-1.57-1.57zM11.402 10.056h5.383c0.785 0 1.458 0.673 1.458 1.458s-0.673 1.458-1.458 1.458h-5.383c-0.785 0-1.458-0.673-1.458-1.458s0.673-1.458 1.458-1.458zM20.598 21.943h-9.084c-0.785 0-1.458-0.673-1.458-1.458s0.673-1.458 1.458-1.458h9.084c0.785 0 1.458 0.673 1.458 1.458s-0.673 1.458-1.458 1.458z"></path>
</svg>
