<!-- Generated by IcoMoon.io -->
<svg version="1.1" xmlns="http://www.w3.org/2000/svg" width="32" height="32" viewBox="0 0 32 32">
<path d="M16 15.185c-1.208-2.349-4.496-6.726-7.553-8.883-2.929-2.068-4.046-1.71-4.778-1.378-0.848 0.381-1.002 1.683-1.002 2.448 0 0.767 0.42 6.278 0.693 7.199 0.906 3.040 4.126 4.067 7.092 3.738-4.347 0.644-8.208 2.228-3.144 7.864 5.57 5.767 7.633-1.237 8.692-4.787 1.059 3.55 2.278 10.301 8.592 4.787 4.741-4.787 1.302-7.22-3.045-7.864 2.967 0.33 6.187-0.698 7.092-3.738 0.273-0.92 0.693-6.433 0.693-7.198 0-0.767-0.154-2.068-1.002-2.451-0.732-0.331-1.849-0.689-4.778 1.378-3.058 2.161-6.346 6.538-7.553 8.886z"></path>
</svg>
