<!-- Generated by IcoMoon.io -->
<svg version="1.1" xmlns="http://www.w3.org/2000/svg" width="32" height="32" viewBox="0 0 32 32">
<path d="M7.231 4.051c-1.712 0-2.978 1.498-2.922 3.123 0.054 1.561-0.016 3.583-0.525 5.231-0.51 1.654-1.374 2.701-2.784 2.836v1.518c1.41 0.135 2.274 1.182 2.784 2.835 0.509 1.649 0.58 3.671 0.525 5.231-0.057 1.625 1.21 3.123 2.922 3.123h17.54c1.712 0 2.978-1.498 2.921-3.123-0.054-1.561 0.016-3.583 0.525-5.231 0.511-1.653 1.372-2.701 2.782-2.835v-1.518c-1.41-0.135-2.271-1.182-2.782-2.836-0.509-1.648-0.58-3.67-0.525-5.231 0.057-1.625-1.21-3.123-2.921-3.123h-17.54zM21.339 18.762c0 2.237-1.669 3.594-4.438 3.594h-4.714c-0.135 0-0.264-0.054-0.36-0.149s-0.149-0.225-0.149-0.36v-11.695c0-0.135 0.054-0.264 0.149-0.36s0.225-0.149 0.36-0.149h4.687c2.309 0 3.825 1.251 3.825 3.171 0 1.348-1.019 2.555-2.318 2.766v0.070c1.768 0.194 2.959 1.418 2.959 3.11zM16.387 11.256h-2.688v3.797h2.264c1.75 0 2.715-0.705 2.715-1.965 0-1.18-0.83-1.832-2.291-1.832zM13.699 16.559v4.184h2.787c1.822 0 2.787-0.731 2.787-2.105s-0.992-2.079-2.905-2.079l-2.67 0z"></path>
</svg>
