<!-- Generated by IcoMoon.io -->
<svg version="1.1" xmlns="http://www.w3.org/2000/svg" width="32" height="32" viewBox="0 0 32 32">
<path d="M16 17.414l5.96 5.96-5.96 5.959-5.96-5.96 5.96-5.959zM5.333 21.494l5.172 5.172-5.172 0-0-5.172zM26.666 21.494l0 5.172-5.172-0 5.172-5.172zM23.373 10.040l5.96 5.96-5.959 5.96-5.96-5.96 5.959-5.96zM8.627 10.040l5.959 5.96-5.96 5.959-5.959-5.959 5.96-5.96zM16 2.667l5.959 5.959-5.959 5.96-5.96-5.959 5.96-5.96zM10.505 5.333l-5.172 5.172 0-5.172 5.172-0zM26.667 5.333l-0 5.172-5.172-5.172 5.172 0z"></path>
</svg>
