<!-- Generated by IcoMoon.io -->
<svg version="1.1" xmlns="http://www.w3.org/2000/svg" width="32" height="32" viewBox="0 0 32 32">
<path d="M13.103 29.018c-5.971-1.323-10.436-6.649-10.436-13.018 0-2.429 0.65-4.707 1.785-6.669l5.711 9.891c1.136 2.054 3.324 3.444 5.837 3.444 0.27 0 0.536-0.016 0.797-0.047l-3.694 6.398zM16 29.333l5.716-9.9c0.604-1.003 0.951-2.178 0.951-3.433 0-1.501-0.496-2.886-1.333-4h7.389c0.397 1.263 0.61 2.606 0.61 4 0 7.364-5.97 13.333-13.333 13.333zM19.429 18.060c-0.7 1.162-1.974 1.94-3.429 1.94-1.48 0-2.773-0.804-3.465-2l-0.038-0.067c-0.317-0.573-0.498-1.232-0.498-1.933 0-2.209 1.791-4 4-4s4 1.791 4 4c0 0.729-0.195 1.412-0.535 2l-0.035 0.060zM6.176 6.985c2.437-2.654 5.936-4.318 9.824-4.318 4.935 0 9.244 2.681 11.55 6.667h-11.55c-2.752 0-5.114 1.667-6.132 4.046l-3.692-6.395z"></path>
</svg>
