<!-- Generated by IcoMoon.io -->
<svg version="1.1" xmlns="http://www.w3.org/2000/svg" width="32" height="32" viewBox="0 0 32 32">
<path d="M16 13.602l-3.596 2.398 3.596 2.398 3.596-2.398-3.596-2.398zM22 14.398l3.596-2.398-8.263-5.509v4.795l4.667 3.111zM26.667 14.491l-2.263 1.509 2.263 1.509v-3.017zM22 17.602l-4.667 3.111v4.795l8.263-5.509-3.596-2.398zM14.667 11.286v-4.795l-8.263 5.509 3.596 2.398 4.667-3.111zM6.404 20l8.263 5.509v-4.795l-4.667-3.111-3.596 2.398zM7.596 16l-2.263-1.509v3.017l2.263-1.509zM2.667 12c0-0.446 0.223-0.862 0.594-1.109l12-8c0.448-0.299 1.031-0.299 1.479 0l12 8c0.371 0.247 0.594 0.664 0.594 1.109v8c0 0.446-0.223 0.862-0.594 1.109l-12 8c-0.448 0.299-1.031 0.299-1.479 0l-12-8c-0.371-0.247-0.594-0.664-0.594-1.109v-8z"></path>
</svg>
