<!-- Generated by IcoMoon.io -->
<svg version="1.1" xmlns="http://www.w3.org/2000/svg" width="32" height="32" viewBox="0 0 32 32">
<path d="M16 29.333c-7.364 0-13.333-5.97-13.333-13.333s5.97-13.333 13.333-13.333c7.364 0 13.333 5.97 13.333 13.333s-5.97 13.333-13.333 13.333zM11.105 16.405c-0.053 1.135 0.050 2.264 0.157 3.393 0.008 0.081 0.037 0.098 0.108 0.107 0.541 0.071 1.083 0.135 1.628 0.169 1.286 0.081 2.571 0.184 3.862 0.112 0.733-0.041 1.467-0.063 2.197-0.127 1.041-0.091 2.080-0.207 3.107-0.415 1.279-0.259 2.543-0.567 3.735-1.127 0.54-0.254 1.053-0.553 1.484-0.981 0.317-0.314 0.544-0.677 0.547-1.146 0.003-0.419-0.019-0.838-0.060-1.254-0.099-0.995-0.303-1.968-0.642-2.907-0.778-2.157-2.012-3.985-3.767-5.426-1.517-1.246-3.227-2.084-5.135-2.485-0.666-0.14-1.341-0.192-2.019-0.24-0.764-0.055-1.418 0.161-1.984 0.685-0.659 0.61-1.116 1.367-1.495 2.178-0.889 1.902-1.297 3.938-1.554 6.010-0.142 1.143-0.222 2.295-0.168 3.453zM15.865 9.698c1.279 0.041 2.36 0.433 3.325 1.142 1.194 0.877 1.96 2.037 2.286 3.483 0.091 0.405 0.129 0.816 0.138 1.229 0.006 0.279-0.147 0.483-0.35 0.654-0.409 0.343-0.894 0.535-1.4 0.677-0.988 0.277-1.995 0.436-3.020 0.489-0.667 0.034-1.333 0.046-2 0.013-0.257-0.013-0.513-0.033-0.769-0.043-0.080-0.003-0.107-0.027-0.111-0.109-0.031-0.578-0.076-1.157-0.067-1.736 0.021-1.368 0.126-2.726 0.529-4.045 0.134-0.439 0.298-0.866 0.561-1.248 0.23-0.333 0.504-0.583 0.879-0.506z"></path>
</svg>
