<!-- Generated by IcoMoon.io -->
<svg version="1.1" xmlns="http://www.w3.org/2000/svg" width="32" height="32" viewBox="0 0 32 32">
<path d="M16 2.667c-7.364 0-13.333 5.97-13.333 13.333s5.97 13.333 13.333 13.333c7.364 0 13.333-5.97 13.333-13.333s-5.969-13.333-13.333-13.333zM21.987 14.72l-0.009 0.019c-0.56 1.197-2.021 3.545-2.021 3.545s-0.002-0.005-0.008-0.015l-0.427 0.743h2.058l-3.93 5.226 0.892-3.555h-1.619l0.563-2.351c-0.455 0.11-0.993 0.261-1.63 0.466 0 0-0.862 0.505-2.483-0.971 0 0-1.093-0.963-0.459-1.204 0.27-0.102 1.309-0.232 2.126-0.343 1.105-0.149 1.785-0.229 1.785-0.229s-3.407 0.051-4.215-0.076c-0.808-0.127-1.834-1.476-2.052-2.661 0 0-0.338-0.651 0.726-0.343s5.469 1.199 5.469 1.199-5.728-1.756-6.109-2.184c-0.381-0.428-1.122-2.339-1.025-3.513 0 0 0.042-0.293 0.342-0.214 0 0 4.235 1.935 7.13 2.994s5.413 1.598 5.088 2.97c-0.028 0.117-0.096 0.288-0.192 0.495z"></path>
</svg>
