<!-- Generated by IcoMoon.io -->
<svg version="1.1" xmlns="http://www.w3.org/2000/svg" width="32" height="32" viewBox="0 0 32 32">
<path d="M25.738 7.116c-1.825-0.835-3.764-1.443-5.787-1.783-0.255 0.439-0.538 1.033-0.736 1.5-2.152-0.311-4.289-0.311-6.411 0-0.198-0.467-0.495-1.061-0.736-1.5-2.038 0.34-3.976 0.948-5.789 1.783-3.665 5.405-4.655 10.683-4.16 15.89 2.434 1.769 4.783 2.844 7.091 3.552 0.566-0.764 1.075-1.585 1.514-2.448-0.835-0.311-1.627-0.693-2.391-1.146 0.198-0.141 0.396-0.297 0.58-0.453 4.613 2.108 9.609 2.108 14.165 0 0.198 0.156 0.382 0.311 0.58 0.453-0.764 0.453-1.557 0.835-2.391 1.146 0.439 0.863 0.948 1.684 1.514 2.448 2.306-0.708 4.669-1.783 7.091-3.552 0.608-6.028-0.964-11.263-4.133-15.89zM11.36 19.795c-1.387 0-2.519-1.259-2.519-2.802s1.104-2.802 2.519-2.802c1.401 0 2.547 1.259 2.519 2.802 0 1.542-1.118 2.802-2.519 2.802zM20.658 19.795c-1.387 0-2.52-1.259-2.52-2.802s1.105-2.802 2.52-2.802c1.401 0 2.547 1.259 2.519 2.802 0 1.542-1.104 2.802-2.519 2.802z"></path>
</svg>
