<!-- Generated by IcoMoon.io -->
<svg version="1.1" xmlns="http://www.w3.org/2000/svg" width="32" height="32" viewBox="0 0 32 32">
<path d="M16 2.667c7.364 0 13.333 5.97 13.333 13.333s-5.97 13.333-13.333 13.333c-3.373 0-6.454-1.253-8.802-3.318l-5.198 0.651 1.898-5.063c-0.79-1.704-1.231-3.602-1.231-5.604 0-7.364 5.97-13.333 13.333-13.333zM10.667 9.334v13.333h4.978l0.35-0.005c4.501-0.138 7.117-2.949 7.117-6.7v-0.037l-0.005-0.287c-0.132-3.697-2.825-6.305-7.387-6.305h-5.053zM15.775 12.611c2.171 0 3.611 1.238 3.611 3.372v0.037l-0.006 0.244c-0.105 2-1.518 3.127-3.605 3.127h-1.478v-6.781h1.478z"></path>
</svg>
