<!-- Generated by IcoMoon.io -->
<svg version="1.1" xmlns="http://www.w3.org/2000/svg" width="32" height="32" viewBox="0 0 32 32">
<path d="M21.752 25.517h5.42c0.457 0 0.828 0.371 0.828 0.828v0.828c0 0.457-0.371 0.828-0.828 0.828h-22.345c-0.457 0-0.828-0.371-0.828-0.828v-0.828c0-0.457 0.371-0.828 0.828-0.828h5.005l-1.281-4.138h2.921c0.356 0 0.672 0.228 0.785 0.566l1.191 3.572h4.683l1.633-5.379h-12.868c-0.457 0-0.828-0.37-0.828-0.827v-9.517c0-0.457 0.371-0.828 0.828-0.828h18.207c0.457 0 0.828 0.371 0.828 0.828v9.517c0 0.457-0.371 0.827-0.828 0.827h-1.718l-1.633 5.379zM5.241 4h21.517c0.457 0 0.828 0.371 0.828 0.828v0.828c0 0.457-0.371 0.828-0.828 0.828h-21.517c-0.457 0-0.828-0.371-0.828-0.828v-0.828c0-0.457 0.371-0.828 0.828-0.828zM9.586 11.448c-0.114 0-0.207 0.093-0.207 0.207v5.379c0 0.114 0.093 0.207 0.207 0.207h12.828c0.114 0 0.207-0.093 0.207-0.207v-5.379c0-0.114-0.093-0.207-0.207-0.207h-12.828z"></path>
</svg>
