<!-- Generated by IcoMoon.io -->
<svg version="1.1" xmlns="http://www.w3.org/2000/svg" width="32" height="32" viewBox="0 0 32 32">
<path d="M16 2.667c-7.361 0-13.333 5.973-13.333 13.333s5.973 13.333 13.333 13.333c7.346 0 13.333-5.973 13.333-13.333s-5.987-13.333-13.333-13.333zM24.807 8.813c1.591 1.938 2.545 4.411 2.574 7.086-0.376-0.072-4.136-0.839-7.925-0.362-0.087-0.188-0.159-0.39-0.246-0.593-0.231-0.55-0.492-1.114-0.752-1.649 4.194-1.706 6.103-4.165 6.349-4.483zM16 4.633c2.892 0 5.539 1.085 7.549 2.863-0.202 0.289-1.923 2.589-5.973 4.107-1.865-3.427-3.933-6.233-4.252-6.667 0.853-0.202 1.75-0.304 2.675-0.304zM11.155 5.704c0.304 0.405 2.328 3.225 4.223 6.58-5.322 1.417-10.022 1.388-10.528 1.388 0.738-3.529 3.124-6.464 6.305-7.968zM4.604 16.015c0-0.116 0-0.231 0-0.347 0.492 0.014 6.016 0.087 11.699-1.62 0.333 0.636 0.636 1.287 0.926 1.938-0.145 0.043-0.304 0.087-0.448 0.13-5.871 1.894-8.995 7.071-9.255 7.505-1.808-2.010-2.921-4.685-2.921-7.607zM16 27.395c-2.632 0-5.061-0.897-6.985-2.401 0.202-0.419 2.516-4.873 8.937-7.115 0.029-0.015 0.043-0.015 0.072-0.029 1.605 4.15 2.256 7.635 2.43 8.633-1.374 0.593-2.878 0.911-4.454 0.911zM22.349 25.443c-0.116-0.694-0.723-4.020-2.213-8.113 3.572-0.564 6.696 0.362 7.086 0.492-0.492 3.167-2.314 5.9-4.873 7.621z"></path>
</svg>
