<!-- Generated by IcoMoon.io -->
<svg version="1.1" xmlns="http://www.w3.org/2000/svg" width="32" height="32" viewBox="0 0 32 32">
<path d="M18.423 29.114c-0.142 0.004-0.283 0.006-0.423 0.006-1.431 0-3.165-0.828-4.559-2.345-1.381-1.502-2.374-3.625-2.374-6.109 0-1.891 0.691-3.42 1.601-4.541 0.076 3.314 3.144 7.474 9.332 7.474 2.237 0 3.623-0.603 4.373-0.929 0.278-0.121 0.468-0.204 0.582-0.204 0.245 0 0.379 0.133 0.379 0.4 0 0.249-0.135 0.428-0.568 1.003l-0.098 0.13c-1.971 2.624-4.888 4.498-8.245 5.114zM14.269 29.222c-6.546-0.849-11.602-6.445-11.602-13.222 0-1.706 0.987-3.105 2.53-4.108 1.548-1.006 3.586-1.559 5.47-1.559 3.035 0 4.846 1.020 5.905 2.196 0.067 0.074 0.131 0.149 0.192 0.225-0.245-0.057-0.501-0.088-0.763-0.088h-0.005c-0.58 0.001-1.126 0.15-1.601 0.412-0.105 0.049-0.209 0.101-0.314 0.156-0.672 0.358-1.375 0.881-2.014 1.557-1.282 1.354-2.332 3.346-2.332 5.875 0 2.849 1.14 5.287 2.726 7.011 0.552 0.6 1.164 1.121 1.81 1.544zM18.469 18.127c0.355-0.374 0.865-0.911 0.865-2.127 0-1.147-0.45-2.895-1.771-4.363-1.342-1.491-3.531-2.637-6.895-2.637-2.116 0-4.411 0.614-6.197 1.774-0.373 0.242-0.727 0.511-1.053 0.805 1.824-5.191 6.769-8.913 12.583-8.913 7.364 0 13.333 5.333 13.333 11.333 0 3.733-2.933 6.467-6.667 6.467-2.667 0-4.533-0.867-4.533-1.8 0-0.186 0.146-0.339 0.335-0.539z"></path>
</svg>
