<!-- Generated by IcoMoon.io -->
<svg version="1.1" xmlns="http://www.w3.org/2000/svg" width="32" height="32" viewBox="0 0 32 32">
<path d="M11.507 10.339c-0.286 0.267-0.726 0.289-0.989 0.289h-2.814c-0.813 0-1.298 0-1.627 0.045-0.177 0.022-0.397 0.111-0.507 0.156-0.045 0.021-0.045 0-0.022-0.022l6.421-6.586c0.022-0.022 0.045-0.022 0.022 0.022-0.045 0.11-0.131 0.332-0.154 0.509-0.045 0.332-0.045 0.82-0.045 1.64v2.949c0 0.267-0.022 0.711-0.285 0.998zM17.751 29.251c-0.746-0.488-1.143-1.131-1.297-1.53-0.158-0.387-0.24-0.802-0.242-1.22 0.002-1.846 1.497-3.343 3.343-3.347 0.549 0 0.989 0.443 0.989 0.997 0.002 0.359-0.192 0.691-0.506 0.865-0.11 0.067-0.264 0.111-0.374 0.134-0.109 0.022-0.527 0.067-0.724 0.243-0.221 0.178-0.397 0.466-0.397 0.777 0 0.332 0.131 0.643 0.352 0.865 0.396 0.399 0.924 0.621 1.495 0.621 0.72-0.003 1.41-0.291 1.917-0.803s0.79-1.203 0.787-1.923c0-1.353-0.901-2.55-2.089-3.082-0.176-0.089-0.461-0.156-0.725-0.223-0.218-0.045-0.438-0.082-0.66-0.11-0.924-0.111-3.232-0.842-3.387-2.904 0 0-0.681 3.103-2.045 3.945-0.131 0.067-0.307 0.134-0.506 0.178s-0.417 0.067-0.484 0.067c-2.221 0.133-4.574-0.577-6.2-2.262 0 0-1.1-0.909-1.671-3.458-0.131-0.622-0.396-1.73-0.549-2.772-0.067-0.377-0.089-0.665-0.11-0.931 0-1.086 0.66-1.817 1.495-1.928h4.486c0.769 0 1.21-0.201 1.495-0.467 0.374-0.354 0.462-0.865 0.462-1.463v-4.677c0.108-0.821 0.836-1.509 1.912-1.509h0.528c0.219 0 0.483 0.022 0.725 0.045 0.176 0.022 0.33 0.067 0.594 0.134 1.341 0.332 1.627 1.707 1.627 1.707s2.529 0.443 3.805 0.665c1.209 0.222 4.201 0.421 4.771 3.458 1.341 7.228 0.528 14.234 0.462 14.234-0.946 6.829-6.575 6.496-6.575 6.496-0.966 0.020-1.913-0.267-2.705-0.82zM21.247 15.506c-0.045 0.111-0.088 0.244-0.066 0.31s0.067 0.089 0.11 0.111c0.264 0.134 0.703 0.199 1.341 0.266 0.637 0.067 1.077 0.111 1.363 0.067 0.045 0 0.089-0.022 0.133-0.089 0.045-0.067 0.022-0.201 0.022-0.311-0.067-0.598-0.616-1.042-1.341-1.131-0.726-0.067-1.341 0.223-1.562 0.777z"></path>
</svg>
