<!-- Generated by IcoMoon.io -->
<svg version="1.1" xmlns="http://www.w3.org/2000/svg" width="32" height="32" viewBox="0 0 32 32">
<path d="M20.537 28v-9.287h3.11l0.465-3.611h-3.575v-2.305c0-1.045 0.29-1.758 1.789-1.758l1.912-0.001v-3.229c-0.331-0.044-1.466-0.142-2.786-0.142-2.757 0-4.644 1.683-4.644 4.773v2.663h-3.118v3.611h3.118v9.287h-11.475c-0.736 0-1.333-0.597-1.333-1.333v-21.333c0-0.736 0.597-1.333 1.333-1.333h21.333c0.736 0 1.333 0.597 1.333 1.333v21.333c0 0.736-0.597 1.333-1.333 1.333h-6.13z"></path>
</svg>
