<!-- Generated by IcoMoon.io -->
<svg version="1.1" xmlns="http://www.w3.org/2000/svg" width="32" height="32" viewBox="0 0 32 32">
<path d="M15.023 2.073v0.821l0.337 5.354-4.469-2.969-0.71-0.41-0.977 1.692 0.711 0.41 4.805 2.385-4.805 2.385-0.711 0.41 0.977 1.692 0.71-0.41 4.469-2.969-0.337 5.354v0.82h1.954v-0.82l-0.337-5.354 4.468 2.969 0.711 0.41 0.977-1.692-0.71-0.41-4.805-2.385 4.805-2.385 0.71-0.41-0.977-1.692-0.711 0.41-4.468 2.969 0.337-5.354v-0.821h-1.954zM7.963 14.302v0.82l0.337 5.354-4.468-2.969-0.711-0.411-0.977 1.693 0.71 0.41 4.806 2.385-4.806 2.385-0.71 0.41 0.977 1.692 0.711-0.41 4.468-2.969-0.337 5.354v0.821h1.954v-0.821l-0.337-5.354 4.468 2.969 0.71 0.41 0.977-1.692-0.711-0.41-4.805-2.385 4.805-2.385 0.711-0.41-0.977-1.693-0.71 0.411-4.468 2.969 0.337-5.354v-0.82h-1.954zM22.083 14.302v0.82l0.337 5.354-4.468-2.969-0.71-0.411-0.977 1.693 0.71 0.41 4.806 2.385-4.806 2.385-0.71 0.41 0.977 1.692 0.71-0.41 4.468-2.969-0.337 5.354v0.821h1.954v-0.821l-0.337-5.354 4.468 2.969 0.71 0.41 0.977-1.692-0.711-0.41-4.805-2.385 4.805-2.385 0.711-0.41-0.977-1.693-0.71 0.411-4.468 2.969 0.337-5.354v-0.82h-1.954z"></path>
</svg>
