<!-- Generated by IcoMoon.io -->
<svg version="1.1" xmlns="http://www.w3.org/2000/svg" width="32" height="32" viewBox="0 0 32 32">
<path d="M7.111 7.111c0-2.455 1.99-4.444 4.444-4.444h8.889c2.455 0 4.444 1.99 4.444 4.444s-1.99 4.444-4.444 4.444h-4.444v13.333c0 2.455-1.99 4.444-4.444 4.444s-4.444-1.99-4.444-4.444c0-2.455 1.99-4.445 4.444-4.445-2.455 0-4.444-1.99-4.444-4.444s1.99-4.444 4.444-4.444h0c-2.455 0-4.444-1.99-4.444-4.444zM16 16c0 2.455 1.99 4.444 4.444 4.444s4.444-1.99 4.444-4.444c0-2.455-1.99-4.444-4.444-4.444s-4.444 1.99-4.444 4.444z"></path>
</svg>
