<!-- Generated by IcoMoon.io -->
<svg version="1.1" xmlns="http://www.w3.org/2000/svg" width="32" height="32" viewBox="0 0 32 32">
<path d="M28.001 4c0.736 0 1.333 0.597 1.333 1.333v21.333c0 0.736-0.597 1.333-1.333 1.333h-24c-0.736 0-1.333-0.597-1.333-1.333v-21.333c0-0.736 0.597-1.333 1.333-1.333h24zM26.668 6.667h-11.287c-0.92 2.636-1.379 6.192-1.379 10.667h4c-0.153 1.226-0.201 2.505-0.143 3.836 1.634-0.282 3.605-1.036 5.369-2.279l1.513 2.219c-2.189 1.459-4.403 2.372-6.634 2.724 0.069 0.493 0.15 0.993 0.245 1.5l8.316-0v-18.667zM8.741 18.891l-1.479 2.219c2.876 1.917 5.796 2.891 8.74 2.891v-2.667c-2.389 0-4.803-0.805-7.26-2.443zM22.668 9.333c0.736 0 1.333 0.597 1.333 1.333v1.333c0 0.736-0.597 1.333-1.333 1.333s-1.333-0.597-1.333-1.333v-1.333c0-0.736 0.597-1.333 1.333-1.333zM9.335 9.333c-0.736 0-1.333 0.602-1.333 1.333 0 0.487 0 0.932 0 1.333 0 0.736 0.597 1.333 1.333 1.333s1.333-0.6 1.333-1.333v-1.333c0-0.736-0.597-1.333-1.333-1.333z"></path>
</svg>
