<!-- Generated by IcoMoon.io -->
<svg version="1.1" xmlns="http://www.w3.org/2000/svg" width="32" height="32" viewBox="0 0 32 32">
<path d="M28.377 11.014c-0.581-1.396-1.756-2.904-2.679-3.38 0.638 1.251 1.19 2.67 1.355 4.075-1.51-3.764-4.071-5.282-6.162-8.587-0.261-0.414-0.566-0.97-0.727-1.35-2.97 1.739-4.201 4.784-4.517 6.723-0.918 0.052-1.816 0.281-2.647 0.675-0.151 0.075-0.227 0.266-0.169 0.424 0.064 0.184 0.278 0.276 0.455 0.196 0.846-0.399 1.778-0.609 2.713-0.619 2.406-0.017 4.691 1.321 5.888 3.412-0.713-0.501-1.99-0.996-3.22-0.782 4.804 2.401 3.514 10.671-3.142 10.359-2.686-0.109-5.26-2.2-5.501-4.973 0 0 0.616-2.297 4.414-2.297 0.411 0 1.584-1.146 1.606-1.478-0.005-0.109-2.329-1.033-3.236-1.926-0.403-0.397-0.792-0.823-1.264-1.141-0.304-1.065-0.317-2.192-0.038-3.264-1.372 0.625-2.445 1.612-3.221 2.484-0.529-0.671-0.492-2.883-0.462-3.345-1.164 0.62-2.19 1.698-2.998 2.85-1.372 1.944-2.162 4.494-2.162 6.908 0 7.375 5.962 13.354 13.338 13.354 6.606 0 12.108-4.795 13.182-11.094 0.321-2.429 0.142-4.946-0.806-7.225z"></path>
</svg>
