<!-- Generated by IcoMoon.io -->
<svg version="1.1" xmlns="http://www.w3.org/2000/svg" width="32" height="32" viewBox="0 0 32 32">
<path d="M16.001 2.667c7.364 0 13.333 5.97 13.333 13.333s-5.97 13.333-13.333 13.333c-7.364 0-13.333-5.97-13.333-13.333 0-1.951 0.419-3.805 1.172-5.475 0.623-1.251 1.645-2.499 2.467-2.924-0.871 1.71-1.297 3.387-1.387 4.51 0.606-2 1.754-3.675 3.361-4.858 2.755-2.025 6.464-2.116 7.941-0.826-2.742 0.941-5.729 4.729-5.070 9.167 0.107 0.733 0.326 1.444 0.652 2.11-0.512-1.348-0.557-3.245 0.269-4.477 0.923-1.374 2.238-1.664 2.941-1.516-0.277-0.058-0.89 1.116-0.981 1.322-0.231 0.525-0.345 1.093-0.335 1.667 0.020 1.197 0.514 2.338 1.374 3.172 2.562 2.496 6.697 1.514 8.548-1.335 1.271-1.961 1.426-5.29-0.206-7.935-0.407-0.645-0.893-1.236-1.445-1.761-2.467-2.354-5.972-3.425-9.309-2.939-1.475 0.236-2.73 0.66-3.766 1.274 1.446-1.444 4.322-2.508 7.107-2.508z"></path>
</svg>
