<!-- Generated by IcoMoon.io -->
<svg version="1.1" xmlns="http://www.w3.org/2000/svg" width="32" height="32" viewBox="0 0 32 32">
<path d="M16.001 2.667c-7.333 0-13.333 6-13.333 13.333s6 13.333 13.333 13.333c7.333 0 13.333-6 13.333-13.333s-6-13.333-13.333-13.333zM8.573 23.429c-2-2-3.048-4.667-3.048-7.238l10.381 10.286c-2.667-0.095-5.333-1.048-7.334-3.048zM18.287 26.191l-12.476-12.476c1.048-4.667 5.238-8.19 10.191-8.19 3.524 0 6.572 1.714 8.476 4.286l-1.428 1.238c-1.619-2.19-4.191-3.619-7.048-3.619-3.714 0-6.857 2.381-8.095 5.714l10.952 10.952c2.762-0.952 4.857-3.333 5.524-6.19h-4.572v-1.905h6.667c0 4.952-3.524 9.143-8.191 10.191z"></path>
</svg>
