<!-- Generated by IcoMoon.io -->
<svg version="1.1" xmlns="http://www.w3.org/2000/svg" width="32" height="32" viewBox="0 0 32 32">
<path d="M28.885 13.316l-0.037-0.095-3.625-9.459c-0.074-0.186-0.204-0.343-0.372-0.45-0.17-0.107-0.369-0.159-0.569-0.148s-0.393 0.083-0.55 0.208c-0.156 0.125-0.268 0.296-0.321 0.489l-2.451 7.501h-9.916l-2.451-7.501c-0.053-0.193-0.165-0.364-0.321-0.489s-0.349-0.199-0.549-0.209-0.399 0.042-0.568 0.15c-0.169 0.107-0.3 0.264-0.374 0.45l-3.667 9.566c-0.521 1.364-0.585 2.861-0.183 4.264s1.25 2.639 2.415 3.519l0.014 0.010 0.032 0.025 5.529 4.139 4.395 3.329c0.195 0.148 0.433 0.227 0.678 0.227s0.483-0.080 0.678-0.227l4.397-3.329 5.576-4.175c1.169-0.88 2.020-2.116 2.424-3.522s0.341-2.905-0.182-4.271z"></path>
</svg>
