<!-- Generated by IcoMoon.io -->
<svg version="1.1" xmlns="http://www.w3.org/2000/svg" width="32" height="32" viewBox="0 0 32 32">
<path d="M4.085 10.012c2.194-4.358 6.703-7.346 11.915-7.346 3.594 0 6.612 1.321 8.921 3.473l-3.824 3.824c-1.382-1.321-3.139-1.994-5.097-1.994-3.473 0-6.412 2.345-7.461 5.497-0.267 0.8-0.418 1.655-0.418 2.533s0.152 1.733 0.418 2.533c1.048 3.151 3.988 5.497 7.461 5.497 1.794 0 3.321-0.473 4.515-1.273 1.412-0.945 2.351-2.358 2.661-4.024h-7.176v-5.158h12.557c0.158 0.873 0.243 1.782 0.243 2.727 0 4.061-1.455 7.479-3.976 9.8-2.206 2.036-5.224 3.23-8.824 3.23-5.212 0-9.721-2.988-11.915-7.345-0.903-1.8-1.418-3.836-1.418-5.988s0.515-4.188 1.418-5.988z"></path>
</svg>
