<!-- Generated by IcoMoon.io -->
<svg version="1.1" xmlns="http://www.w3.org/2000/svg" width="32" height="32" viewBox="0 0 32 32">
<path d="M4.813 2.419l13.578 13.581-13.576 13.582c-0.257-0.109-0.483-0.299-0.634-0.56-0.118-0.203-0.179-0.433-0.179-0.668v-24.708c0-0.551 0.335-1.024 0.812-1.227zM19.333 16.943l3.069 3.069-14.583 8.444 11.513-11.513zM23.599 12.679l3.743 2.168c0.637 0.369 0.855 1.185 0.486 1.822-0.117 0.202-0.284 0.369-0.486 0.486l-3.744 2.167-3.321-3.321 3.323-3.321zM7.82 3.544l14.584 8.443-3.071 3.071-11.513-11.513z"></path>
</svg>
