<!-- Generated by IcoMoon.io -->
<svg version="1.1" xmlns="http://www.w3.org/2000/svg" width="32" height="32" viewBox="0 0 32 32">
<path d="M28.212 5.677c0.046 4.666 0.788 6.415 1.050 8.936 0.401 3.859-0.876 7.859-3.833 10.816-4.888 4.888-12.628 5.187-17.866 0.897l3.802-3.804c3.124 2.226 7.489 1.938 10.292-0.865s3.091-7.169 0.864-10.293l5.69-5.687zM24.439 5.675l-3.802 3.804c-3.124-2.226-7.489-1.938-10.292 0.865s-3.091 7.168-0.865 10.292l-5.689 5.688c-0.046-4.666-0.788-6.415-1.050-8.936-0.401-3.859 0.876-7.859 3.833-10.816 4.888-4.888 12.628-5.188 17.866-0.897zM16.001 10.667c2.945 0 5.333 2.388 5.333 5.333s-2.388 5.333-5.333 5.333c-2.946 0-5.333-2.388-5.333-5.333s2.388-5.333 5.333-5.333zM16.001 14c-1.105 0-2 0.895-2 2s0.895 2 2 2c1.105 0 2-0.895 2-2s-0.895-2-2-2z"></path>
</svg>
