<!-- Generated by IcoMoon.io -->
<svg version="1.1" xmlns="http://www.w3.org/2000/svg" width="32" height="32" viewBox="0 0 32 32">
<path d="M11.484 26.826c-3.658 1.988-6.817 2.399-8.563 0.655-1.792-1.788-0.838-6.469 1.751-11.165 1.264-2.293 2.918-4.59 4.832-6.556 0.25-0.25 1.5-1.498 1.583-1.498 0 0-0.667 0.416-0.75 0.416-2.6 1.46-4.883 4.107-5.382 4.701 0.077-0.346 0.169-0.686 0.275-1.020 1.542-4.848 6.080-8.36 11.438-8.36 0.307 0 0.61 0.011 0.911 0.034 4.126-1.87 7.965-2.302 9.589-0.681 1.5 1.498 1.417 3.994 0.167 6.989-0.012 0.029-0.024 0.058-0.036 0.086 0.875 1.665 1.369 3.561 1.369 5.572 0 0.506-0.031 1.004-0.092 1.493h-1.073c-0.068 0.002-0.131 0.003-0.189 0.003h-15.727v0.25c0.082 2.663 2.415 4.992 5.249 4.992 2 0 3.917-1.082 4.75-2.663h6.372c-0.010 0.028-0.020 0.056-0.031 0.084-1.691 4.577-6.094 7.84-11.259 7.84-1.857 0-3.615-0.422-5.184-1.174zM10.675 26.399c-2.434-1.406-4.329-3.643-5.297-6.322-1.547 3.042-1.946 5.587-0.625 6.906 1.083 1.083 3.25 0.832 5.917-0.581l0.005-0.003zM26.897 9.723c0.007-0.015 0.014-0.030 0.021-0.045 1-2.163 1.083-3.993 0.167-5.075-1.159-1.157-3.387-1.001-6.030 0.224 2.438 0.958 4.487 2.691 5.843 4.896zM22.086 14.337v-0.083c-0.167-2.746-2.333-4.826-5-4.826-2.833 0-5.249 2.247-5.415 4.826v0.083h10.415z"></path>
</svg>
