<!-- Generated by IcoMoon.io -->
<svg version="1.1" xmlns="http://www.w3.org/2000/svg" width="32" height="32" viewBox="0 0 32 32">
<path d="M17.371 2.668c1.501 0.002 2.261 0.010 2.918 0.030l0.259 0.008c0.299 0.011 0.594 0.024 0.949 0.041 1.419 0.066 2.387 0.29 3.237 0.62 0.879 0.339 1.621 0.797 2.362 1.538 0.74 0.741 1.198 1.486 1.538 2.362 0.329 0.849 0.553 1.818 0.62 3.237 0.016 0.356 0.029 0.65 0.039 0.949l0.008 0.259c0.019 0.657 0.028 1.418 0.031 2.918l0.001 0.994c0 0.121 0 0.247 0 0.376l-0 0.376-0.001 0.994c-0.003 1.501-0.010 2.261-0.030 2.918l-0.009 0.259c-0.011 0.299-0.024 0.594-0.041 0.949-0.066 1.419-0.291 2.387-0.62 3.237-0.339 0.879-0.798 1.621-1.538 2.362-0.741 0.74-1.487 1.198-2.362 1.538-0.85 0.329-1.818 0.553-3.237 0.62-0.356 0.016-0.651 0.029-0.949 0.039l-0.259 0.008c-0.657 0.020-1.417 0.028-2.918 0.031l-0.994 0.001c-0.121 0-0.247 0-0.376 0l-1.37-0.001c-1.501-0.002-2.261-0.010-2.918-0.030l-0.259-0.008c-0.299-0.011-0.594-0.024-0.949-0.041-1.419-0.065-2.386-0.291-3.237-0.62-0.878-0.339-1.621-0.798-2.362-1.538-0.741-0.741-1.198-1.487-1.538-2.362-0.33-0.85-0.553-1.818-0.62-3.237-0.016-0.355-0.029-0.65-0.039-0.949l-0.008-0.259c-0.019-0.657-0.028-1.417-0.031-2.918l-0-2.741c0.002-1.501 0.010-2.261 0.030-2.918l0.008-0.259c0.011-0.299 0.024-0.594 0.041-0.949 0.066-1.42 0.29-2.387 0.62-3.237 0.339-0.878 0.797-1.621 1.538-2.362s1.486-1.198 2.362-1.538c0.85-0.33 1.817-0.553 3.237-0.62 0.356-0.016 0.65-0.029 0.949-0.039l0.259-0.008c0.657-0.020 1.418-0.028 2.918-0.031l2.741-0zM16 9.333c-3.684 0-6.667 2.986-6.667 6.667 0 3.684 2.986 6.667 6.667 6.667 3.684 0 6.667-2.986 6.667-6.667 0-3.684-2.986-6.667-6.667-6.667zM16 12c2.209 0 4 1.79 4 4s-1.79 4-4 4c-2.209 0-4-1.79-4-4s1.79-4 4-4zM23 7.333c-0.919 0-1.667 0.747-1.667 1.666s0.747 1.667 1.667 1.667c0.919 0 1.667-0.747 1.667-1.667 0-0.919-0.749-1.667-1.667-1.666z"></path>
</svg>
