<!-- Generated by IcoMoon.io -->
<svg version="1.1" xmlns="http://www.w3.org/2000/svg" width="32" height="32" viewBox="0 0 32 32">
<path d="M5.335 4h21.333c0.736 0 1.333 0.597 1.333 1.333v21.333c0 0.736-0.597 1.333-1.333 1.333h-21.333c-0.736 0-1.333-0.597-1.333-1.333v-21.333c0-0.736 0.597-1.333 1.333-1.333zM9.318 18.753c-0.080 0.356-0.121 0.74-0.121 1.054 0 1.235 0.644 2.056 2.012 2.056 1.135 0 2.055-0.701 2.717-1.833l-0.405 1.689h2.254l1.288-5.375c0.322-1.361 0.946-2.067 1.892-2.067 0.745 0 1.207 0.482 1.207 1.277 0 0.23-0.020 0.481-0.101 0.754l-0.664 2.47c-0.101 0.356-0.141 0.712-0.141 1.047 0 1.173 0.664 2.031 2.052 2.031 1.187 0 2.133-0.795 2.656-2.7l-0.885-0.356c-0.443 1.276-0.825 1.507-1.127 1.507s-0.463-0.209-0.463-0.628c0-0.188 0.040-0.398 0.101-0.649l0.644-2.407c0.161-0.565 0.221-1.066 0.221-1.527 0-1.8-1.047-2.74-2.314-2.74-1.187 0-2.395 1.114-2.998 2.287l0.443-2.105h-3.441l-0.483 1.854h1.61l-0.991 4.129c-0.779 1.8-2.208 1.83-2.388 1.788-0.295-0.069-0.483-0.185-0.483-0.584 0-0.23 0.040-0.56 0.141-0.958l1.509-6.229h-3.823l-0.483 1.854h1.59l-1.026 4.362zM11.501 11.5c0.828 0 1.5-0.672 1.5-1.5s-0.672-1.5-1.5-1.5c-0.828 0-1.5 0.672-1.5 1.5s0.672 1.5 1.5 1.5z"></path>
</svg>
