<!-- Generated by IcoMoon.io -->
<svg version="1.1" xmlns="http://www.w3.org/2000/svg" width="32" height="32" viewBox="0 0 32 32">
<path d="M20.851 6.088l0.074 0.042c-1.010 0.534-3.898 2.252-3.898 4.442 0 0.739 0.423 1.452 0.819 2.12 0.349 0.589 0.678 1.144 0.678 1.651 0 1.277-1.244 2.266-1.947 2.723l-0.134-0.077c0.266-0.324 0.592-0.866 0.592-1.445 0-0.798-0.409-1.435-0.824-2.082-0.429-0.668-0.865-1.348-0.865-2.226 0-3.057 4.154-4.697 5.503-5.149zM15.391 7.705c1.67-1.494 3.495-3.126 3.495-5.581 0-1.111-0.454-1.82-0.68-2.104l-0.072 0.042c0.055 0.22 0.134 0.629 0.134 1.162 0 2.235-1.896 3.801-3.731 5.318-1.722 1.423-3.391 2.802-3.391 4.648 0 2.646 2.611 4.274 3.713 4.962 0.029 0.018 0.058 0.036 0.085 0.053l0.067-0.039c-0.060-0.065-0.124-0.133-0.19-0.204-0.848-0.902-2.135-2.272-2.135-4.366 0-1.472 1.298-2.632 2.705-3.892zM14.788 20.914c2.353 0 3.998-0.337 4.728-0.544l1.11 0.641c-1.057 0.537-3.402 0.946-5.843 0.946-2.871 0-6.009-0.616-6.020-1.437-0.006-0.452 1.021-0.754 2.127-0.95l0.067 0.039c0 0-0.374 0.135-0.37 0.445 0.006 0.465 1.892 0.861 4.201 0.861zM10.083 23.809c0-0.543 1.117-0.8 1.63-0.902l0.067 0.039c-0.088 0.066-0.135 0.155-0.135 0.231 0 0.357 1.239 0.682 3.141 0.682 1.704 0 2.65-0.21 3.212-0.344l1.321 0.764c-0.059 0.042-1.36 0.859-4.536 0.859-2.308 0-4.699-0.577-4.699-1.329zM21.454 21.505c1.574-0.897 3.149-1.958 3.238-3.663 0.058-1.118-0.969-1.939-2.093-1.719l0.060-0.15 0.001-0.003c0.282-0.086 0.631-0.155 1.022-0.155 1.257 0 2.221 0.754 2.344 1.808 0.248 2.115-2.749 3.491-4.429 3.963l-0.143-0.082zM24.087 25.489c0.013 1.453-4.931 2.318-9.349 2.357-3.815 0.033-9.966-0.687-9.978-2.139-0.009-1.004 2.667-1.7 4.12-1.9l0.153 0.087c0 0-2.167 0.502-2.159 1.415 0.008 0.911 4.566 1.699 7.857 1.671 5.1-0.045 8.552-0.876 8.961-2.002l0.073-0.041c0.149 0.109 0.321 0.289 0.323 0.553zM8.575 28.45c1.804 0.303 3.948 0.449 5.704 0.433 8.278-0.072 10.613-2.108 10.975-2.549l0.062 0.036c-0.087 1.611-4.463 2.95-9.861 2.997-2.749 0.024-5.25-0.294-7.047-0.821l0.167-0.096zM12.043 16.072c-1.438 0.111-4.527 0.567-4.527 1.382 0 0.615 2.831 1.483 7.268 1.483 3.992 0 6.513-0.753 7.1-1.041l-0.857-0.499c-0.613 0.167-2.891 0.675-6.243 0.675-1.973 0-5.373-0.364-5.373-0.919 0-0.499 2.122-0.884 2.731-0.995 0.013-0.002 0.026-0.005 0.038-0.007l-0.137-0.079z"></path>
</svg>
