<!-- Generated by IcoMoon.io -->
<svg version="1.1" xmlns="http://www.w3.org/2000/svg" width="32" height="32" viewBox="0 0 32 32">
<path d="M16.001 4c7.732 0 14 4.886 14 10.913s-6.268 10.913-14 10.913c-0.784 0-1.553-0.051-2.302-0.148l-5.877 3.844c-0.669 0.354-0.905 0.315-0.629-0.551l1.189-4.903c-3.84-1.946-6.38-5.319-6.38-9.155 0-6.027 6.268-10.913 14-10.913zM23.877 14.745l1.96-1.897c0.25-0.242 0.256-0.64 0.015-0.89s-0.64-0.256-0.89-0.015l-2.571 2.488v-2.056c0-0.347-0.282-0.629-0.629-0.629s-0.629 0.282-0.629 0.629v3.409c-0.024 0.097-0.023 0.198 0 0.296v1.919c0 0.347 0.282 0.629 0.629 0.629s0.629-0.282 0.629-0.629v-1.817l0.57-0.552 1.904 2.711c0.123 0.174 0.318 0.268 0.515 0.268 0.125 0 0.251-0.037 0.361-0.115 0.284-0.2 0.353-0.592 0.153-0.877l-2.018-2.873zM19.934 17.312h-1.947v-4.916c0-0.347-0.282-0.629-0.629-0.629s-0.629 0.282-0.629 0.629v5.545c0 0.348 0.282 0.629 0.629 0.629h2.576c0.348 0 0.629-0.282 0.629-0.629s-0.282-0.629-0.629-0.629zM12.124 15.857l0.928-2.277 0.85 2.277h-1.778zM15.488 16.507c0-0.007 0.002-0.014 0.002-0.021 0-0.165-0.065-0.314-0.169-0.427l-1.394-3.734c-0.131-0.373-0.46-0.621-0.837-0.631-0.371-0.010-0.716 0.222-0.871 0.595l-2.215 5.434c-0.131 0.322 0.023 0.689 0.345 0.82s0.689-0.023 0.82-0.345l0.441-1.083h2.76l0.398 1.066c0.095 0.253 0.334 0.409 0.59 0.409 0.073 0 0.147-0.013 0.22-0.040 0.326-0.121 0.491-0.484 0.369-0.81l-0.46-1.234zM11.059 12.403c0-0.347-0.282-0.629-0.629-0.629h-4.326c-0.348 0-0.629 0.282-0.629 0.629s0.282 0.629 0.629 0.629h1.547v4.981c0 0.347 0.282 0.629 0.629 0.629s0.629-0.282 0.629-0.629v-4.981h1.521c0.347 0 0.629-0.282 0.629-0.629z"></path>
</svg>
