<!-- Generated by IcoMoon.io -->
<svg version="1.1" xmlns="http://www.w3.org/2000/svg" width="32" height="32" viewBox="0 0 32 32">
<path d="M24.885 14.454c0 0.383-0.312 0.7-0.7 0.7h-1.95v1.25h1.95c0.388 0 0.7 0.314 0.7 0.7 0 0.382-0.312 0.699-0.7 0.699h-2.651c-0.383 0-0.697-0.317-0.697-0.699v-5.301c0-0.383 0.313-0.7 0.7-0.7h2.651c0.384 0 0.697 0.317 0.697 0.7 0 0.388-0.312 0.7-0.7 0.7h-1.95v1.25h1.95c0.388 0 0.7 0.317 0.7 0.701zM19.421 17.766c-0.071 0.023-0.148 0.035-0.221 0.035-0.234 0-0.434-0.1-0.567-0.278l-2.714-3.685v3.267c0 0.382-0.31 0.699-0.701 0.699-0.385 0-0.696-0.317-0.696-0.699v-5.301c0-0.3 0.192-0.567 0.478-0.661 0.067-0.026 0.151-0.037 0.216-0.037 0.217 0 0.417 0.116 0.55 0.282l2.736 3.7v-3.284c0-0.383 0.313-0.7 0.7-0.7 0.383 0 0.7 0.317 0.7 0.7v5.301c0 0.3-0.193 0.567-0.48 0.662zM12.821 17.803c-0.383 0-0.697-0.317-0.697-0.699v-5.301c0-0.383 0.313-0.7 0.7-0.7 0.384 0 0.698 0.317 0.698 0.7v5.301c0 0.382-0.313 0.699-0.701 0.699zM10.782 17.803h-2.651c-0.383 0-0.7-0.317-0.7-0.699v-5.301c0-0.383 0.317-0.7 0.7-0.7 0.387 0 0.7 0.317 0.7 0.7v4.601h1.951c0.387 0 0.699 0.314 0.699 0.7 0 0.382-0.313 0.699-0.699 0.699zM16.001 3.429c-7.35 0-13.333 4.857-13.333 10.825 0 5.345 4.744 9.824 11.15 10.675 0.434 0.091 1.025 0.287 1.175 0.656 0.133 0.334 0.088 0.851 0.042 1.2l-0.182 1.133c-0.050 0.334-0.267 1.318 1.166 0.717 1.434-0.599 7.684-4.531 10.484-7.75 1.916-2.099 2.831-4.249 2.831-6.631 0-5.968-5.983-10.825-13.333-10.825z"></path>
</svg>
