<!-- Generated by IcoMoon.io -->
<svg version="1.1" xmlns="http://www.w3.org/2000/svg" width="32" height="32" viewBox="0 0 32 32">
<path d="M20.133 28.4c0.4-1.333 0.267-2.533-0.4-3.733s-2.4-2.933-3.733-4.267l-2 1.867c-1.067 1.2-2.267 2.533-2.4 4.133s0 1.2 0.267 1.867c0 0-0.267-0.267-0.267-0.267-1.067-1.333-1.067-2.933-0.533-4.4s2-3.333 3.333-4.8c-0.667-0.8-1.333-1.6-1.867-2.4-1.867-2.933-2.4-6.4-0.4-9.6s2.267-2.667 3.733-3.333 0.267 0 0.4 0c0.267 0 0.933 0.4 1.067 0.533 2 1.333 3.6 3.467 4 6s-1.067 6-3.067 8.267l-1.6-1.733c1.333-1.6 2.4-3.6 2.533-5.733s-1.067-5.467-3.067-7.2c0 0 0 0 0 0-0.667 0.533-1.6 1.867-2 2.533-2.133 4-0.8 7.6 2 10.8s2.8 2.8 3.867 4.4 2.4 4.8 0.4 6.8 0 0 0 0z"></path>
</svg>
