<?xml version="1.0" encoding="UTF-8"?>
<svg id="Layer_1" xmlns="http://www.w3.org/2000/svg" version="1.1" viewBox="0 0 1024 1024">
  <!-- Generator: Adobe Illustrator 29.2.1, SVG Export Plug-In . SVG Version: 2.1.0 Build 116)  -->
  <g>
    <path d="M344.5,966.1c-20.8-19.6-34.7-43.7-41.1-71.6-6-25.8-5.1-54.2,2.3-82.1,21.4-79.8,81.7-142.2,140.1-202.4l1.6-1.7c-56.7-55.2-127.1-142.7-142.6-247.6-16.8-113.9,36.1-225.3,141.5-298.1,22.9-15.8,43.5-26.6,63-33.2l4.5-1.5-3.5,3.2c-40.1,36.7-72.2,79.5-92.7,123.7-55.7,120-30.2,240.6,78.1,368.7,21.9,25.9,47.4,51.5,72.1,76.3,62.3,62.6,126.8,127.4,150,210.2,7.8,28.1,9,56.6,3.4,82.6-6.1,28.1-19.7,52.5-40.4,72.5l-.5.5-.6-.3c-1.7-.8-1-2.8-.6-3.8,0-.2.2-.5.2-.7.7-3.1,1.6-6.2,2.5-9.1,1.1-3.8,2.3-7.6,3-11.6,9-49.4-5.1-95.2-45.6-148.6-31.2-41.1-71.7-76.3-110.9-110.3-5.5-4.7-10.9-9.5-16.3-14.2-5.4,4.8-10.9,9.6-16.4,14.4-45.8,40-93.2,81.3-126,132.1-33.4,51.8-41.3,102.7-23.4,151.4l1.5,4-3.1-2.9Z"/>
    <path d="M509.6,30.4c-38.6,35.3-71.3,77.4-93,124.1-63.3,136.3-14.2,260.3,78.3,369.8,76.1,90.1,189.4,170.2,221.8,286.2,15.3,54.7,5.9,112.8-36.8,154.1-1.2-.5,0-2.4.2-3.3,1.6-6.9,4.2-13.6,5.5-20.7,10.4-57-11.6-104.3-45.8-149.4-35.8-47.1-83.2-86-128-125.2-51.4,45.2-106.3,90-143.2,147.2-30.4,47.1-43.2,98.5-23.5,152.3-43-40.4-53.1-98.3-38.5-152.7,21.6-80.7,84.4-144.7,142.2-204.4-69.2-67.1-129.1-153.1-143-247.7-17.5-118.6,40.8-227.9,141.1-297.1,19-13.1,40.5-25.6,62.8-33M517.9,25.5l-8.9,3c-19.6,6.6-40.3,17.4-63.3,33.3-50.6,34.9-90.5,80.2-115.3,130.8-12.7,25.9-21.5,53.1-26,80.9-4.7,28.7-4.9,58.1-.6,87.3,15.4,104.7,85.5,192.1,142.2,247.5l-.9,1c-28.7,29.6-58.3,60.2-83.5,93.4-28.6,37.8-47.2,73.6-56.8,109.4-7.5,28.1-8.3,56.6-2.3,82.6,6.5,28.1,20.4,52.4,41.4,72.1l6.2,5.8-2.9-7.9c-17.7-48.4-9.9-99,23.3-150.5,32.7-50.7,80-91.9,125.8-131.9,5.2-4.5,10.5-9.2,15.8-13.8,5.2,4.6,10.5,9.2,15.6,13.6,39.1,34,79.6,69.2,110.8,110.2,40.4,53.1,54.4,98.7,45.5,147.8-.7,3.9-1.9,7.7-3,11.5-.9,3-1.8,6.1-2.5,9.2,0,0-.1.4-.2.5-.4.9-1.4,3.8,1.1,5l1.2.6,1-1c20.8-20.1,34.5-44.7,40.7-73,5.7-26.1,4.5-54.8-3.4-83-23.2-83.1-87.8-148-150.2-210.7-24.7-24.8-50.2-50.4-72-76.2-108-127.8-133.5-248.1-78-367.6,20.5-44.2,52.5-86.8,92.5-123.4l7-6.4h0Z"/>
  </g>
  <g>
    <path d="M532.1,519.1l.6-.7c60.6-74.2,93.6-142.8,100.9-209.8,10.5-97.1-34.7-201.1-120.9-278.3l-3.9-3.5,4.9,1.8c25.1,9.2,50.7,23.5,76,42.6,35.1,26.4,64.3,57.5,86.7,92.6,23.5,36.8,38.2,75.9,43.6,116.4,7.3,53.7-1.4,109.3-25.8,165.2-21.2,48.5-53.5,96.1-96.1,141.5l-.7.8-65.2-68.5Z"/>
    <path d="M513.3,29.5c27.4,10.1,52.8,25.2,75.8,42.4,68.5,51.4,118.7,125.3,129.9,208.3,15.5,114.5-43.6,222.8-121.6,305.9l-63.9-67.1c49.9-61.1,92.6-132,101.1-210.4,11.4-105.7-41.6-207.9-121.3-279.2M504.1,24.1l7.8,7c86,77,131.1,180.7,120.6,277.5-7.2,66.8-40.1,135.3-100.6,209.3l-1.1,1.4,1.2,1.3,63.9,67.1,1.5,1.5,1.4-1.5c42.7-45.4,75-93.1,96.2-141.8,24.5-56.1,33.2-111.9,25.9-165.8-5.5-40.6-20.2-79.9-43.8-116.8-22.4-35.1-51.7-66.4-86.9-92.8-25.4-19.1-51.1-33.5-76.3-42.7l-9.8-3.6h0Z"/>
  </g>
</svg>