<!-- Generated by IcoMoon.io -->
<svg version="1.1" xmlns="http://www.w3.org/2000/svg" width="32" height="32" viewBox="0 0 32 32">
<path d="M16.001 8.872c2.107 1.66 3.461 4.234 3.461 7.125s-1.353 5.465-3.461 7.125c-2.107-1.66-3.461-4.234-3.461-7.125s1.353-5.465 3.461-7.125zM14.842 8.096c-2.228 1.907-3.641 4.741-3.641 7.904 0 3.161 1.411 5.993 3.637 7.901-1.312 0.739-2.827 1.16-4.44 1.16-5.006 0-9.064-4.058-9.064-9.064s4.058-9.064 9.064-9.064c1.615 0 3.131 0.422 4.444 1.162zM17.165 23.901c2.226-1.907 3.637-4.739 3.637-7.901 0-3.163-1.412-5.997-3.641-7.904 1.313-0.74 2.829-1.162 4.444-1.162 5.006 0 9.064 4.058 9.064 9.064s-4.058 9.064-9.064 9.064c-1.613 0-3.127-0.421-4.44-1.16z"></path>
</svg>
