<!-- Generated by IcoMoon.io -->
<svg version="1.1" xmlns="http://www.w3.org/2000/svg" width="32" height="32" viewBox="0 0 32 32">
<path d="M28.346 18.653c-0.366 1.881-3.275 3.94-6.616 4.339-1.742 0.208-3.458 0.399-5.287 0.315-2.991-0.137-5.352-0.714-5.352-0.714 0 0.291 0.018 0.569 0.054 0.828 0.389 2.952 2.927 3.129 5.332 3.212 2.427 0.083 4.588-0.598 4.588-0.598l0.1 2.194c0 0-1.698 0.912-4.722 1.079-1.668 0.092-3.738-0.042-6.15-0.68-5.231-1.384-6.13-6.96-6.268-12.617-0.042-1.68-0.016-3.263-0.016-4.588 0-5.785 3.79-7.48 3.79-7.48 1.911-0.878 5.19-1.247 8.6-1.275h0.084c3.409 0.028 6.691 0.397 8.602 1.275 0 0 3.79 1.696 3.79 7.48 0 0 0.048 4.268-0.529 7.231zM24.404 11.871c0-1.432-0.365-2.569-1.097-3.411-0.755-0.842-1.744-1.273-2.971-1.273-1.42 0-2.496 0.546-3.207 1.638l-0.691 1.159-0.691-1.159c-0.711-1.092-1.786-1.638-3.206-1.638-1.227 0-2.216 0.431-2.971 1.273-0.732 0.842-1.097 1.979-1.097 3.411v7.004h2.775v-6.799c0-1.433 0.603-2.161 1.809-2.161 1.334 0 2.002 0.863 2.002 2.569v3.721h2.759v-3.721c0-1.706 0.668-2.569 2.002-2.569 1.206 0 1.809 0.727 1.809 2.161v6.799h2.775v-7.004z"></path>
</svg>
