<!-- Generated by IcoMoon.io -->
<svg version="1.1" xmlns="http://www.w3.org/2000/svg" width="32" height="32" viewBox="0 0 32 32">
<path d="M8.211 4h15.579c2.325 0 4.211 1.885 4.211 4.211v4.488c-0.109-0.007-0.217-0.010-0.326-0.010-0.537 0-1.195 0.13-1.663 0.366-0.533 0.247-1.004 0.616-1.395 1.101-0.63 0.781-1.012 1.836-1.105 3.022-0.020 0.235-0.026 0.472-0.022 0.709 0.063 2.685 1.513 4.832 4.090 4.832 0.144 0 0.285-0.007 0.422-0.020v1.093c0 2.325-1.885 4.211-4.211 4.211h-15.579c-2.325 0-4.211-1.885-4.211-4.211v-15.579c0-2.325 1.885-4.211 4.211-4.211zM28 20.517v-3.634h-2.204c-0.099 1.755 0.861 3.239 2.204 3.634zM28 16.375v-3.077c-0.107-0.029-0.221-0.045-0.342-0.047-1.085 0.022-1.732 1.323-1.813 3.124h2.155zM23.596 9.733l0.019-0.004v-0.147h-3.865l-3.589 8.435-3.589-8.435h-4.165v0.147l0.019 0.004c0.705 0.159 1.064 0.397 1.064 1.253v10.026c0 0.856-0.36 1.094-1.065 1.253l-0.019 0.004v0.147h2.826v-0.147l-0.019-0.004c-0.706-0.159-1.064-0.397-1.064-1.253v-9.445l4.61 10.849h0.261l4.745-11.151v9.995c-0.060 0.676-0.415 0.885-1.054 1.029l-0.019 0.004v0.145h4.922v-0.145l-0.019-0.004c-0.639-0.144-1.003-0.353-1.063-1.029l-0.003-10.274h0.003c0-0.856 0.358-1.094 1.063-1.253z"></path>
</svg>
