<!-- Generated by IcoMoon.io -->
<svg version="1.1" xmlns="http://www.w3.org/2000/svg" width="32" height="32" viewBox="0 0 32 32">
<path d="M16.001 2.667c7.511 0 13.333 5.502 13.333 12.933s-5.822 12.933-13.333 12.933c-1.304 0.003-2.602-0.169-3.859-0.513-0.237-0.065-0.488-0.046-0.713 0.053l-2.646 1.168c-0.325 0.143-0.699 0.116-1-0.073s-0.487-0.515-0.498-0.87l-0.073-2.372c-0.010-0.292-0.139-0.567-0.358-0.76-2.594-2.32-4.187-5.679-4.187-9.566 0-7.431 5.822-12.933 13.333-12.933zM7.995 19.382c-0.376 0.597 0.357 1.269 0.919 0.843l4.207-3.193c0.285-0.215 0.678-0.215 0.963 0l3.115 2.333c0.447 0.335 1.013 0.468 1.563 0.367s1.031-0.428 1.329-0.9l3.917-6.213c0.376-0.597-0.357-1.269-0.919-0.843l-4.207 3.193c-0.285 0.215-0.678 0.215-0.963 0l-3.115-2.333c-0.447-0.335-1.014-0.468-1.563-0.367s-1.031 0.428-1.329 0.9l-3.917 6.213z"></path>
</svg>
