<!-- Generated by IcoMoon.io -->
<svg version="1.1" xmlns="http://www.w3.org/2000/svg" width="32" height="32" viewBox="0 0 32 32">
<path d="M22.56 6c-2.468 0-4.397 1.859-6.143 4.22-2.4-3.056-4.407-4.22-6.809-4.22-4.897 0-8.648 6.372-8.648 13.117 0 4.221 2.042 6.883 5.462 6.883 2.462 0 4.232-1.161 7.379-6.662 0 0 1.312-2.317 2.214-3.913 0.316 0.511 0.649 1.060 0.999 1.651l1.476 2.483c2.875 4.811 4.477 6.441 7.379 6.441 3.332 0 5.186-2.699 5.186-7.007 0-7.062-3.836-12.993-8.497-12.993zM11.401 17.848c-2.552 4-3.434 4.897-4.855 4.897-1.462 0-2.331-1.284-2.331-3.572 0-4.897 2.441-9.903 5.352-9.903 1.576 0 2.893 0.91 4.91 3.798-1.916 2.938-3.076 4.781-3.076 4.781zM21.032 17.345l-1.765-2.943c-0.477-0.777-0.935-1.49-1.377-2.145 1.59-2.455 2.902-3.678 4.463-3.678 3.241 0 5.834 4.772 5.834 10.634 0 2.235-0.732 3.531-2.248 3.531-1.453 0-2.148-0.96-4.907-5.4z"></path>
</svg>
