<!-- Generated by IcoMoon.io -->
<svg version="1.1" xmlns="http://www.w3.org/2000/svg" width="32" height="32" viewBox="0 0 32 32">
<path d="M21.121 16.921c-0.030 0.009-0.059 0.018-0.089 0.026-0.181 0.051-0.367 0.083-0.552 0.083-0.814 0-1.273-0.55-1.026-1.228 0.181-0.496 0.654-0.914 1.233-1.108 0.896-0.327 1.523-1.072 1.523-1.94 0-1.169-1.137-2.116-2.54-2.116s-2.54 0.948-2.54 2.116v6.49c0 1.561-0.904 2.93-2.257 3.704-0.738 0.422-1.606 0.67-2.54 0.67-2.645 0-4.797-1.962-4.797-4.374 0-0.768 0.22-1.489 0.602-2.116 0.592-0.972 1.578-1.716 2.76-2.055 0.202-0.063 0.409-0.097 0.612-0.097 0.817 0 1.279 0.552 1.031 1.233-0.168 0.461-0.62 0.859-1.148 1.070-0.063 0.021-0.124 0.045-0.185 0.069-0.838 0.346-1.415 1.064-1.415 1.896 0 1.169 1.137 2.116 2.54 2.116s2.54-0.947 2.54-2.116v-6.49c0-1.561 0.904-2.93 2.257-3.704 0.738-0.422 1.607-0.67 2.54-0.67 2.645 0 4.797 1.962 4.797 4.374 0 0.768-0.22 1.489-0.602 2.116-0.589 0.967-1.57 1.709-2.744 2.050zM2.668 16c0 7.364 5.97 13.333 13.333 13.333s13.333-5.97 13.333-13.333c0-7.364-5.97-13.333-13.333-13.333s-13.333 5.97-13.333 13.333z"></path>
</svg>
