<!-- Generated by IcoMoon.io -->
<svg version="1.1" xmlns="http://www.w3.org/2000/svg" width="32" height="32" viewBox="0 0 32 32">
<path d="M16.001 29.333c-7.364 0-13.333-5.97-13.333-13.333s5.97-13.333 13.333-13.333c7.364 0 13.333 5.97 13.333 13.333s-5.97 13.333-13.333 13.333zM14.553 15.425c0.321-1.121 1.433-2.056 2.654-2.198 0.249 0.925 0.516 1.831 0.727 2.75 0.070 0.307 0.049 0.66-0.025 0.97-0.283 1.189-1.663 1.656-2.637 0.913-0.708-0.54-0.989-1.492-0.719-2.435zM19.643 15.161c-0.167-0.619-0.342-1.236-0.524-1.893 0.666 0.173 1.209 0.48 1.673 0.93 1.675 1.629 1.847 4.4 0.392 6.309-1.514 1.986-4.207 2.845-6.705 2.139-3.069-0.867-5.077-3.936-4.588-7.087 0.366-2.358 1.694-4.005 3.867-4.978 0.543-0.243 0.773-0.746 0.56-1.239-0.21-0.486-0.721-0.672-1.258-0.457-3.629 1.451-5.762 5.512-4.893 9.316 0.95 4.157 4.658 6.883 8.898 6.478 2.31-0.221 4.219-1.264 5.621-3.129 2.008-2.67 1.73-6.377-0.616-8.666-0.889-0.867-1.962-1.358-3.186-1.538-0.112-0.016-0.29-0.069-0.31-0.141-0.117-0.418-0.241-0.843-0.275-1.272-0.038-0.477 0.386-0.855 0.867-0.861 0.337-0.004 0.578 0.175 0.804 0.4 0.403 0.401 0.939 0.429 1.317 0.084 0.385-0.352 0.395-0.904 0.024-1.345-0.755-0.895-2.115-1.188-3.239-0.698-1.13 0.493-1.762 1.582-1.6 2.791 0.050 0.374 0.146 0.743 0.222 1.123-0.121 0.033-0.235 0.064-0.348 0.096-1.141 0.319-2.081 0.938-2.796 1.886-1.229 1.627-1.249 3.769-0.055 5.263 1.699 2.125 4.996 1.712 6.031-0.758 0.378-0.902 0.366-1.824 0.116-2.753z"></path>
</svg>
