<!-- Generated by IcoMoon.io -->
<svg version="1.1" xmlns="http://www.w3.org/2000/svg" width="32" height="32" viewBox="0 0 32 32">
<path d="M15.056 5.086l2.691 7.609 0.528 1.488 0.010-6.414 0.012-6.423h5.695l0.010 14.483c0.004 7.974-0.005 14.521-0.021 14.533s-0.278 0-0.581-0.036c-1.319-0.157-3.053-0.315-4.453-0.375-0.462-0.022-0.845-0.046-0.849-0.051-0.004-0.005-0.363-1.016-1.035-2.913l0-0.005c-0.655-1.851-1.615-4.565-2.858-8.082l-0.454-1.271-0.010 6.114c-0.009 5.82-0.013 6.147-0.076 6.147-0.218 0-2.093 0.121-2.72 0.182-0.411 0.036-1.234 0.121-1.827 0.194-0.594 0.068-1.088 0.114-1.098 0.104s-0.018-6.545-0.018-14.524v-14.508h0.007l-0.001-0.002h5.717l0.037 0.108c0.009 0.020 0.086 0.234 0.21 0.581l0.855 2.371 0.23 0.661-0.001 0.031z"></path>
</svg>
