<!-- Generated by IcoMoon.io -->
<svg version="1.1" xmlns="http://www.w3.org/2000/svg" width="32" height="32" viewBox="0 0 32 32">
<path d="M14.899 30.074c0.341 0.185 0.708 0.29 1.102 0.29s0.787-0.106 1.101-0.238l10.464-6.096c0.681-0.396 1.101-1.135 1.101-1.927v-12.165c0-0.792-0.419-1.531-1.101-1.926l-10.464-6.096c-0.656-0.369-1.547-0.369-2.203 0l-10.464 6.096c-0.682 0.396-1.101 1.135-1.101 1.926v12.165c0 0.792 0.42 1.531 1.101 1.927l2.754 1.583c1.338 0.66 1.81 0.66 2.413 0.66 1.967 0 3.095-1.214 3.095-3.299v-12.007c0-0.185-0.157-0.317-0.315-0.317h-1.337c-0.184 0-0.315 0.158-0.315 0.317v12.007c0 0.924-0.97 1.847-2.518 1.056l-2.859-1.663c-0.105-0.053-0.157-0.185-0.157-0.29v-12.165c0-0.106 0.052-0.237 0.157-0.29l10.464-6.069c0.079-0.053 0.21-0.053 0.315 0l10.464 6.069c0.104 0.053 0.158 0.158 0.158 0.29v12.165c0 0.132-0.053 0.237-0.158 0.29l-10.464 6.096c-0.079 0.053-0.21 0.053-0.315 0l-2.675-1.61c-0.079-0.053-0.184-0.079-0.262-0.027-0.734 0.422-0.865 0.475-1.573 0.713-0.157 0.053-0.42 0.158 0.105 0.449l3.488 2.085zM13.718 18.093c0 1.794 0.944 3.906 5.534 3.906 3.303 0 5.218-1.32 5.218-3.642 0-2.269-1.521-2.876-4.747-3.299-3.252-0.422-3.593-0.66-3.593-1.425 0-0.633 0.289-1.478 2.701-1.478 2.15 0 2.963 0.475 3.278 1.926 0.026 0.132 0.158 0.238 0.288 0.238h1.39c0.080 0 0.158-0.053 0.211-0.106 0.052-0.079 0.078-0.158 0.078-0.237-0.21-2.533-1.861-3.694-5.219-3.694-2.99 0-4.773 1.267-4.773 3.404 0 2.296 1.783 2.929 4.642 3.219 3.435 0.343 3.698 0.845 3.698 1.531 0 1.187-0.944 1.689-3.147 1.689-2.78 0-3.383-0.686-3.593-2.085 0-0.158-0.131-0.264-0.289-0.264h-1.364c-0.184 0-0.315 0.158-0.315 0.317z"></path>
</svg>
