<!-- Generated by IcoMoon.io -->
<svg version="1.1" xmlns="http://www.w3.org/2000/svg" width="32" height="32" viewBox="0 0 32 32">
<path d="M8.139 7.88c0.778 0.632 1.070 0.584 2.531 0.486l13.776-0.827c0.292 0 0.049-0.291-0.048-0.34l-2.288-1.654c-0.438-0.34-1.023-0.73-2.142-0.633l-13.339 0.973c-0.486 0.048-0.584 0.291-0.39 0.486l1.9 1.508zM8.966 11.090v14.494c0 0.779 0.389 1.070 1.265 1.022l15.14-0.876c0.877-0.048 0.974-0.584 0.974-1.217v-14.397c0-0.632-0.243-0.973-0.78-0.924l-15.821 0.924c-0.584 0.049-0.779 0.341-0.779 0.973zM23.911 11.868c0.097 0.438 0 0.876-0.439 0.925l-0.73 0.145v10.701c-0.633 0.34-1.217 0.535-1.704 0.535-0.779 0-0.974-0.243-1.558-0.973l-4.771-7.491v7.247l1.51 0.341c0 0 0 0.875-1.218 0.875l-3.358 0.195c-0.098-0.195 0-0.681 0.341-0.778l0.876-0.243v-9.582l-1.217-0.097c-0.098-0.438 0.145-1.070 0.827-1.119l3.603-0.243 4.966 7.588v-6.713l-1.266-0.145c-0.097-0.536 0.292-0.925 0.779-0.973l3.36-0.196zM5.509 4.572l13.875-1.022c1.704-0.146 2.142-0.048 3.213 0.73l4.429 3.113c0.731 0.535 0.974 0.681 0.974 1.265v17.073c0 1.070-0.39 1.703-1.753 1.8l-16.113 0.973c-1.023 0.049-1.51-0.097-2.046-0.778l-3.262-4.232c-0.584-0.779-0.827-1.362-0.827-2.043v-15.176c0-0.875 0.39-1.605 1.509-1.702z"></path>
</svg>
