<!-- Generated by IcoMoon.io -->
<svg version="1.1" xmlns="http://www.w3.org/2000/svg" width="32" height="32" viewBox="0 0 32 32">
<path d="M27.417 13.583c0.333-0.917 0.417-1.833 0.333-2.75s-0.417-1.833-0.833-2.667c-0.75-1.25-1.833-2.25-3.083-2.833-1.333-0.583-2.75-0.75-4.167-0.417-0.667-0.667-1.417-1.25-2.25-1.667s-1.833-0.583-2.75-0.583c-1.417 0-2.833 0.417-4 1.25s-2 2-2.417 3.333c-1 0.25-1.833 0.667-2.667 1.167-0.75 0.583-1.333 1.333-1.833 2.083-0.75 1.25-1 2.667-0.833 4.083s0.75 2.75 1.667 3.833c-0.333 0.917-0.417 1.833-0.333 2.75s0.417 1.833 0.833 2.667c0.75 1.25 1.833 2.25 3.083 2.833 1.333 0.583 2.75 0.75 4.167 0.417 0.667 0.667 1.417 1.25 2.25 1.667s1.833 0.583 2.75 0.583c1.417 0 2.833-0.417 4-1.25s2-2 2.417-3.333c0.917-0.167 1.833-0.583 2.583-1.167s1.417-1.25 1.833-2.083c0.75-1.25 1-2.667 0.833-4.083s-0.667-2.75-1.583-3.833zM17.417 27.583c-1.333 0-2.333-0.417-3.25-1.167 0 0 0.083-0.083 0.167-0.083l5.333-3.083c0.167-0.083 0.25-0.167 0.333-0.333s0.083-0.25 0.083-0.417v-7.5l2.25 1.333v6.167c0.083 2.917-2.25 5.083-4.917 5.083zM6.667 23c-0.583-1-0.833-2.167-0.583-3.333 0 0 0.083 0.083 0.167 0.083l5.333 3.083c0.167 0.083 0.25 0.083 0.417 0.083s0.333 0 0.417-0.083l6.5-3.75v2.583l-5.417 3.167c-1.167 0.667-2.5 0.833-3.75 0.5-1.333-0.333-2.417-1.167-3.083-2.333zM5.25 11.417c0.583-1 1.5-1.75 2.583-2.167v6.333c0 0.167 0 0.333 0.083 0.417 0.083 0.167 0.167 0.25 0.333 0.333l6.5 3.75-2.25 1.333-5.333-3.083c-1.167-0.667-2-1.75-2.333-3s-0.25-2.75 0.417-3.917zM23.667 15.667l-6.5-3.75 2.25-1.333 5.333 3.083c0.833 0.5 1.5 1.167 1.917 2s0.667 1.75 0.583 2.75c-0.083 0.917-0.417 1.833-1 2.583s-1.333 1.333-2.25 1.667v-6.333c0-0.167 0-0.333-0.083-0.417 0 0-0.083-0.167-0.25-0.25zM25.917 12.333c0 0-0.083-0.083-0.167-0.083l-5.333-3.083c-0.167-0.083-0.25-0.083-0.417-0.083s-0.333 0-0.417 0.083l-6.5 3.75v-2.583l5.417-3.167c0.833-0.5 1.75-0.667 2.75-0.667 0.917 0 1.833 0.333 2.667 0.917 0.75 0.583 1.417 1.333 1.75 2.167s0.417 1.833 0.25 2.75zM11.917 17l-2.25-1.333v-6.25c0-0.917 0.25-1.917 0.75-2.667 0.5-0.833 1.25-1.417 2.083-1.833s1.833-0.583 2.75-0.417c0.917 0.083 1.833 0.5 2.583 1.083 0 0-0.083 0.083-0.167 0.083l-5.333 3.083c-0.167 0.083-0.25 0.167-0.333 0.333s-0.083 0.25-0.083 0.417v7.5zM13.083 14.333l2.917-1.667 2.917 1.667v3.333l-2.917 1.667-2.917-1.667v-3.333z"></path>
</svg>
