<!-- Generated by IcoMoon.io -->
<svg version="1.1" xmlns="http://www.w3.org/2000/svg" width="32" height="32" viewBox="0 0 32 32">
<path d="M11.614 8.487c-1.476 1.74-2.429 4.314-2.496 7.2v0.627c0.068 2.887 1.020 5.458 2.496 7.199 1.912 2.484 4.754 4.060 7.932 4.060 1.951 0 3.778-0.597 5.341-1.635-2.353 2.113-5.47 3.396-8.885 3.396-0.213 0-0.426-0.004-0.633-0.016-7.073-0.33-12.7-6.167-12.7-13.318 0-7.366 5.97-13.333 13.333-13.333h0.050c3.394 0.013 6.489 1.296 8.837 3.394-1.565-1.033-3.39-1.634-5.345-1.634-3.175 0-6.019 1.578-7.933 4.060h0.003zM29.335 16c0 3.951-1.717 7.498-4.447 9.939-3.42 1.667-6.607 0.501-7.662-0.228 3.359-0.738 5.897-4.8 5.897-9.711 0-4.913-2.537-8.972-5.897-9.711 1.054-0.727 4.242-1.892 7.662-0.228 2.73 2.439 4.447 5.989 4.447 9.939z"></path>
</svg>
