<!-- Generated by IcoMoon.io -->
<svg version="1.1" xmlns="http://www.w3.org/2000/svg" width="32" height="32" viewBox="0 0 32 32">
<path d="M26.756 11.304c0.656 1.174 0.742 2.686 0.4 4.437-0.987 5.074-4.368 6.827-8.685 6.827h-0.667c-0.527 0-0.976 0.385-1.059 0.906l-0.054 0.294-0.839 5.324-0.043 0.227c-0.083 0.521-0.532 0.905-1.059 0.905h-4.457c-0.396 0-0.698-0.353-0.636-0.743l0.233-1.479h2.025l1.266-8.028h1.847c6.237 0 10.332-2.937 11.728-8.669zM22.809 4.517c1.017 1.158 1.312 2.415 1.004 4.381-0.026 0.164-0.053 0.321-0.083 0.479-0.98 5.031-4.118 7.262-9.274 7.262h-2.513c-0.841 0-1.564 0.551-1.804 1.336l-0.019-0.003-1.239 7.859h-4.717c-0.042 0-0.074-0.037-0.068-0.080l3.464-22.015c0.097-0.616 0.628-1.070 1.251-1.070h7.967c2.91 0 4.956 0.625 6.031 1.85z"></path>
</svg>
