<!-- Generated by IcoMoon.io -->
<svg version="1.1" xmlns="http://www.w3.org/2000/svg" width="32" height="32" viewBox="0 0 32 32">
<path d="M7.646 2.667l7.593 6.995v-6.978h1.478v7.011l7.627-7.027v7.977h3.132v11.506h-3.122v7.103l-7.637-6.71v6.787h-1.478v-6.676l-7.585 6.681v-7.184h-3.132v-11.506h3.123v-7.977zM14.126 12.103h-8.124v8.585h1.652v-2.708l6.472-5.877zM9.133 18.629v7.447l6.107-5.379v-7.615l-6.107 5.547zM16.761 20.625l6.116 5.374v-3.85h-0.008v-3.527l-6.109-5.547v7.551zM24.355 20.689h1.644v-8.585h-8.063l6.42 5.816v2.769zM22.867 10.643v-4.618l-5.013 4.618h5.013zM14.137 10.643l-5.012-4.618v4.618h5.012z"></path>
</svg>
