<!-- Generated by IcoMoon.io -->
<svg version="1.1" xmlns="http://www.w3.org/2000/svg" width="32" height="32" viewBox="0 0 32 32">
<path d="M17.829 2.793c-6.595-0.909-12.851 3.188-14.655 9.598s1.395 13.169 7.496 15.835c-0.080-1.024-0.007-2.055 0.216-3.057 0.246-1.118 1.728-7.284 1.728-7.284-0.295-0.661-0.443-1.379-0.433-2.103 0-1.98 1.143-3.457 2.564-3.457 0.517-0.008 1.011 0.21 1.355 0.596s0.502 0.903 0.435 1.415c0 1.2-0.771 3.016-1.172 4.719-0.162 0.634-0.013 1.307 0.401 1.813s1.044 0.785 1.697 0.752c2.53 0 4.228-3.242 4.228-7.068 0-2.934-1.944-5.129-5.524-5.129-1.731-0.067-3.414 0.579-4.656 1.787s-1.935 2.872-1.917 4.605c-0.038 0.951 0.269 1.884 0.864 2.626 0.229 0.17 0.317 0.472 0.216 0.739-0.062 0.246-0.216 0.831-0.278 1.046-0.026 0.147-0.12 0.274-0.254 0.34s-0.292 0.066-0.425-0.002c-1.846-0.739-2.716-2.77-2.716-5.088 0-3.796 3.18-8.341 9.539-8.341 5.062 0 8.426 3.703 8.426 7.663 0 5.212-2.902 9.131-7.191 9.131-1.303 0.041-2.537-0.585-3.272-1.662 0 0-0.771 3.088-0.923 3.673-0.31 1.009-0.768 1.967-1.358 2.842 1.23 0.373 2.509 0.56 3.795 0.554 3.536 0.002 6.929-1.402 9.429-3.904s3.903-5.895 3.899-9.433c-0.004-6.659-4.918-12.295-11.514-13.204z"></path>
</svg>
