<!-- Generated by IcoMoon.io -->
<svg version="1.1" xmlns="http://www.w3.org/2000/svg" width="32" height="32" viewBox="0 0 32 32">
<path d="M19.301 2.357c-1.822-1.822-4.777-1.822-6.6 0l-5.502 5.502c1.474-0.092 2.979 0.425 4.105 1.552l3.99 3.99c0.391 0.391 1.024 0.391 1.414 0l3.99-3.99c1.126-1.126 2.631-1.644 4.105-1.552l-5.502-5.502zM27.272 10.328l2.372 2.372c1.815 1.815 1.822 4.754 0.021 6.579l-2.366 2.366c-1.562 1.562-4.095 1.562-5.657 0l-3.991-3.991c-0.911-0.911-2.389-0.911-3.3 0l-3.991 3.991c-1.562 1.562-4.095 1.562-5.657 0l-2.373-2.373c-1.795-1.825-1.786-4.759 0.028-6.572l2.366-2.366c1.564-1.542 4.082-1.536 5.637 0.020l3.99 3.99c0.911 0.911 2.389 0.911 3.3 0l3.99-3.99c1.553-1.553 4.067-1.562 5.631-0.026zM7.197 24.139c1.474 0.092 2.979-0.425 4.105-1.552l3.991-3.991c0.391-0.391 1.024-0.391 1.414 0l3.991 3.991c1.126 1.126 2.631 1.644 4.105 1.552l-5.504 5.504c-1.822 1.822-4.777 1.822-6.6 0l-5.504-5.504z"></path>
</svg>
