<!-- Generated by IcoMoon.io -->
<svg version="1.1" xmlns="http://www.w3.org/2000/svg" width="32" height="32" viewBox="0 0 32 32">
<path d="M30.113 22.682c-0.573 0.724-1.977 1.24-1.977 1.24l-10.443 3.756v-2.77l7.685-2.742c0.872-0.313 1.006-0.755 0.297-0.987-0.708-0.233-1.989-0.166-2.862 0.148l-5.121 1.806v-2.874l0.295-0.1c0 0 1.48-0.524 3.561-0.755 2.081-0.229 4.629 0.031 6.629 0.791 2.254 0.713 2.508 1.764 1.935 2.488zM18.687 17.965v-7.083c0-0.832-0.153-1.598-0.933-1.814-0.597-0.191-0.967 0.364-0.967 1.195v17.737l-4.778-1.518v-21.148c2.031 0.378 4.991 1.27 6.582 1.807 4.046 1.391 5.418 3.122 5.418 7.022 0 3.802-2.344 5.242-5.322 3.803zM3.242 24.618c-2.314-0.652-2.699-2.012-1.644-2.795 0.975-0.723 2.632-1.267 2.632-1.267l6.851-2.439v2.78l-4.93 1.766c-0.871 0.313-1.005 0.756-0.297 0.988s1.99 0.166 2.862-0.147l2.365-0.859v2.487c-0.15 0.027-0.317 0.053-0.472 0.079-2.365 0.387-4.884 0.225-7.367-0.594z"></path>
</svg>
