<!-- Generated by IcoMoon.io -->
<svg version="1.1" xmlns="http://www.w3.org/2000/svg" width="32" height="32" viewBox="0 0 32 32">
<path d="M26.552 19.372c-0.24-0.765-0.568-1.658-0.901-2.515l-1.213-2.995c0.001-0.035 0.016-0.624 0.016-0.928 0-5.121-2.443-10.267-8.453-10.267s-8.453 5.147-8.453 10.267c0 0.304 0.015 0.894 0.016 0.928l-1.212 2.995c-0.332 0.857-0.661 1.749-0.901 2.515-1.146 3.649-0.775 5.159-0.492 5.193 0.607 0.072 2.361-2.747 2.361-2.747 0 1.633 0.85 3.763 2.688 5.302-0.688 0.21-1.53 0.532-2.072 0.928-0.487 0.356-0.426 0.718-0.338 0.865 0.385 0.643 6.607 0.41 8.404 0.21 1.796 0.2 8.019 0.433 8.404-0.21 0.088-0.146 0.148-0.509-0.338-0.865-0.542-0.396-1.385-0.718-2.073-0.928 1.838-1.538 2.688-3.669 2.688-5.301 0 0 1.755 2.819 2.362 2.747 0.282-0.034 0.654-1.544-0.492-5.193z"></path>
</svg>
