<!-- Generated by IcoMoon.io -->
<svg version="1.1" xmlns="http://www.w3.org/2000/svg" width="32" height="32" viewBox="0 0 32 32">
<path d="M19.264 21.653c-0.756 1.069-1.54 2.043-2.329 2.9 2.23 2.164 4.303 3.177 5.454 2.513s1.31-2.967 0.551-5.98c-1.137 0.255-2.372 0.446-3.676 0.567zM17.517 21.769c-0.499 0.021-1.005 0.031-1.517 0.031s-1.018-0.011-1.517-0.031c0.502 0.656 1.011 1.265 1.517 1.819 0.506-0.554 1.015-1.162 1.517-1.819zM24.238 11.244c3.553 1.019 5.873 2.713 5.873 4.756s-2.32 3.737-5.873 4.756c0.894 3.587 0.587 6.443-1.182 7.464s-4.396-0.141-7.056-2.708c-2.659 2.567-5.286 3.73-7.056 2.708s-2.076-3.878-1.182-7.464c-3.553-1.019-5.873-2.713-5.873-4.756s2.32-3.737 5.873-4.756c-0.894-3.587-0.587-6.443 1.182-7.464s4.396 0.141 7.056 2.708c2.659-2.567 5.286-3.73 7.056-2.708s2.076 3.878 1.182 7.464zM22.94 10.914c0.759-3.013 0.6-5.316-0.551-5.98s-3.224 0.349-5.454 2.513c0.789 0.858 1.573 1.831 2.329 2.9 1.304 0.12 2.539 0.312 3.676 0.567zM9.061 21.086c-0.759 3.013-0.6 5.315 0.551 5.98s3.224-0.349 5.454-2.513c-0.789-0.858-1.573-1.831-2.329-2.9-1.304-0.12-2.539-0.312-3.676-0.567zM14.484 10.231c0.498-0.021 1.005-0.031 1.517-0.031s1.018 0.011 1.517 0.031c-0.502-0.656-1.011-1.265-1.517-1.819-0.506 0.554-1.015 1.162-1.517 1.819zM12.737 10.347c0.756-1.069 1.54-2.043 2.329-2.9-2.23-2.164-4.304-3.177-5.454-2.513s-1.31 2.967-0.551 5.98c1.137-0.255 2.372-0.446 3.676-0.567zM18.525 20.373c0.461-0.676 0.911-1.391 1.343-2.14s0.826-1.496 1.181-2.233c-0.355-0.737-0.749-1.484-1.181-2.233s-0.883-1.464-1.343-2.14c-0.816-0.061-1.66-0.094-2.525-0.094s-1.709 0.032-2.525 0.094c-0.461 0.676-0.911 1.391-1.343 2.14s-0.826 1.496-1.181 2.233c0.355 0.737 0.749 1.484 1.181 2.233s0.883 1.464 1.343 2.14c0.816 0.061 1.66 0.094 2.525 0.094s1.709-0.033 2.525-0.094zM20.238 20.198c0.82-0.107 1.601-0.243 2.333-0.404-0.227-0.715-0.499-1.46-0.817-2.223-0.231 0.442-0.475 0.885-0.731 1.329s-0.518 0.877-0.785 1.298zM11.763 11.802c-0.82 0.107-1.601 0.243-2.333 0.404 0.227 0.715 0.499 1.46 0.817 2.223 0.231-0.442 0.475-0.886 0.731-1.329s0.518-0.877 0.785-1.298zM9.429 19.794c0.733 0.161 1.514 0.297 2.333 0.404-0.267-0.421-0.529-0.854-0.785-1.298s-0.5-0.887-0.731-1.329c-0.317 0.763-0.59 1.508-0.817 2.223zM8.126 19.467c0.348-1.112 0.8-2.277 1.347-3.467-0.548-1.189-0.999-2.355-1.347-3.467-2.989 0.849-4.903 2.138-4.903 3.467s1.914 2.618 4.903 3.467zM22.571 12.206c-0.733-0.161-1.514-0.297-2.333-0.404 0.267 0.421 0.529 0.854 0.785 1.298s0.5 0.887 0.731 1.329c0.317-0.763 0.59-1.508 0.817-2.223zM23.875 12.533c-0.348 1.112-0.8 2.277-1.347 3.467 0.548 1.189 0.999 2.355 1.347 3.467 2.989-0.849 4.903-2.138 4.903-3.467s-1.914-2.618-4.903-3.467zM16 18.505c-1.384 0-2.505-1.122-2.505-2.505s1.122-2.506 2.505-2.506c1.384 0 2.506 1.122 2.506 2.506s-1.122 2.505-2.506 2.505z"></path>
</svg>
