<!-- Generated by IcoMoon.io -->
<svg version="1.1" xmlns="http://www.w3.org/2000/svg" width="32" height="32" viewBox="0 0 32 32">
<path d="M16.001 29.333c-7.364 0-13.333-5.97-13.333-13.333s5.97-13.333 13.333-13.333c7.364 0 13.333 5.97 13.333 13.333s-5.97 13.333-13.333 13.333zM24.895 16c-0.028-0.767-0.504-1.445-1.215-1.733s-1.525-0.131-2.078 0.4c-1.517-1.031-3.3-1.601-5.133-1.64l0.867-4.16 2.853 0.6c0.070 0.651 0.603 1.155 1.257 1.189s1.236-0.413 1.373-1.054-0.213-1.286-0.824-1.522c-0.611-0.236-1.303 0.007-1.633 0.573l-3.267-0.653c-0.108-0.024-0.221-0.003-0.314 0.057s-0.157 0.155-0.18 0.263l-0.987 4.627c-1.856 0.028-3.664 0.598-5.2 1.64-0.562-0.529-1.382-0.676-2.093-0.375s-1.176 0.992-1.188 1.763c-0.012 0.771 0.433 1.476 1.134 1.798-0.015 0.195-0.015 0.391 0 0.587 0 2.987 3.48 5.413 7.773 5.413s7.773-2.427 7.773-5.413c0.015-0.195 0.015-0.391 0-0.587 0.671-0.334 1.092-1.024 1.080-1.773zM11.561 17.333c0-0.736 0.597-1.333 1.333-1.333s1.333 0.597 1.333 1.333-0.597 1.333-1.333 1.333c-0.354 0-0.693-0.141-0.943-0.391s-0.391-0.589-0.391-0.943zM19.308 21c-0.946 0.713-2.11 1.076-3.293 1.027-1.183 0.049-2.347-0.314-3.293-1.027-0.117-0.143-0.107-0.352 0.024-0.483s0.34-0.141 0.483-0.024c0.802 0.588 1.78 0.884 2.773 0.84 0.994 0.054 1.977-0.233 2.787-0.813 0.095-0.093 0.233-0.128 0.361-0.092s0.227 0.138 0.26 0.267-0.006 0.266-0.101 0.359v-0.053zM19.068 18.72c-0.736 0-1.333-0.597-1.333-1.333s0.597-1.333 1.333-1.333c0.736 0 1.333 0.597 1.333 1.333 0.015 0.365-0.121 0.72-0.376 0.982s-0.606 0.408-0.971 0.404l0.013-0.053z"></path>
</svg>
