<!-- Generated by IcoMoon.io -->
<svg version="1.1" xmlns="http://www.w3.org/2000/svg" width="32" height="32" viewBox="0 0 32 32">
<path d="M22.040 23.372l4.628 4.628h-22.667v-22.667l14.222 0.010c0.147-0.007 0.295-0.010 0.445-0.010 0.061 0 0.121 0.001 0.181 0.002-0.119 0.494-0.181 1.014-0.181 1.554 0 3.091 2.686 5.778 6.222 5.778 0.966 0 1.892-0.262 2.709-0.717 0.261 0.86 0.402 1.772 0.402 2.717 0 3.966-2.473 7.353-5.961 8.705zM24.668 10c-1.841 0-3.333-1.492-3.333-3.333s1.492-3.333 3.333-3.333c1.841 0 3.333 1.492 3.333 3.333s-1.492 3.333-3.333 3.333z"></path>
</svg>
