<!-- Generated by IcoMoon.io -->
<svg version="1.1" xmlns="http://www.w3.org/2000/svg" width="32" height="32" viewBox="0 0 32 32">
<path d="M25.487 26.667c0-1.419 0-2.719-0.216-5.492-0.267-2.786-1.718-4.198-4.199-4.694 2.939-0.382 5.115-2.671 5.115-6.182 0-4.694-3.092-7.632-9.313-7.632h-11.541v4.892h10.396c2.748 0 4.122 1.179 4.122 3.126 0 2.213-1.374 3.049-4.122 3.049h-10.396v4.999h10.091c2.176 0 3.359 0.611 3.55 3.358 0.144 1.877 0.126 2.806 0.109 3.697v0.004c-0.006 0.285-0.011 0.567-0.011 0.875h6.416zM5.333 22.939v3.727h8.163v-2.385c0-0.501-0.246-1.342-1.379-1.342h-6.784z"></path>
</svg>
