<!-- Generated by IcoMoon.io -->
<svg version="1.1" xmlns="http://www.w3.org/2000/svg" width="32" height="32" viewBox="0 0 32 32">
<path d="M22.268 9.068l-8.153 5.047-5.047 8.153-0.139-0.139-1.886 1.886 0.943 0.943 1.886-1.886-0.139-0.139 8.153-5.047 5.047-8.152 0.139 0.139 1.886-1.886-0.943-0.943-1.886 1.886 0.139 0.139zM16.001 29.333c-7.364 0-13.333-5.97-13.333-13.333s5.97-13.333 13.333-13.333c7.364 0 13.333 5.97 13.333 13.333s-5.97 13.333-13.333 13.333zM15.335 4v2.667h1.333v-2.667h-1.333zM15.335 25.333v2.667h1.333v-2.667h-1.333zM10.793 5.169l1.020 2.464 1.232-0.51-1.020-2.464-1.232 0.51zM18.957 24.878l1.021 2.464 1.232-0.51-1.021-2.464-1.232 0.51zM19.978 4.658l-1.021 2.464 1.232 0.51 1.021-2.464-1.232-0.51zM11.814 24.368l-1.020 2.464 1.232 0.51 1.020-2.464-1.232-0.51zM28.001 15.333h-2.667v1.333h2.667v-1.333zM6.668 15.333h-2.667v1.333h2.667v-1.333zM27.279 20.154l-2.447-1.059-0.529 1.224 2.447 1.059 0.529-1.224zM7.7 11.681l-2.447-1.059-0.53 1.224 2.447 1.059 0.53-1.224zM26.833 10.792l-2.464 1.021 0.51 1.232 2.464-1.021-0.51-1.232zM7.123 18.956l-2.464 1.021 0.51 1.232 2.464-1.021-0.51-1.232zM24.958 24.014l-1.886-1.886-0.943 0.943 1.886 1.886 0.943-0.943zM9.873 8.929l-1.886-1.886-0.943 0.943 1.886 1.886 0.943-0.943zM15.084 15.083l4.815-2.98-2.98 4.815-1.834-1.834z"></path>
</svg>
