<!-- Generated by IcoMoon.io -->
<svg version="1.1" xmlns="http://www.w3.org/2000/svg" width="32" height="32" viewBox="0 0 32 32">
<path d="M17.748 27.2c-0.569 0.088-1.153 0.134-1.747 0.134-6.259 0-11.333-5.074-11.333-11.333 0-0.594 0.046-1.177 0.134-1.747-0.511-0.972-0.8-2.079-0.8-3.253 0-3.866 3.134-7 7-7 1.175 0 2.281 0.289 3.253 0.8 0.569-0.088 1.153-0.134 1.747-0.134 6.259 0 11.333 5.074 11.333 11.333 0 0.594-0.046 1.177-0.134 1.747 0.511 0.972 0.8 2.079 0.8 3.253 0 3.866-3.134 7-7 7-1.175 0-2.281-0.289-3.253-0.8zM16.071 22.874l-0.054 0.001c3.83 0 5.738-1.848 5.738-4.324 0-1.598-0.735-3.295-3.634-3.944l-2.644-0.587c-1.007-0.229-2.163-0.534-2.163-1.487s0.825-1.617 2.298-1.617c2.974 0 2.702 2.037 4.175 2.037 0.767 0 1.457-0.456 1.457-1.24 0-1.826-2.93-3.199-5.408-3.199-2.695 0-5.564 1.144-5.564 4.191 0 1.465 0.524 3.027 3.412 3.751l3.586 0.895c1.088 0.269 1.358 0.878 1.358 1.429 0 0.916-0.911 1.811-2.557 1.811-3.223 0-2.771-2.477-4.499-2.477-0.774 0-1.337 0.531-1.337 1.296 0 1.485 1.802 3.464 5.836 3.464z"></path>
</svg>
