<!-- Generated by IcoMoon.io -->
<svg version="1.1" xmlns="http://www.w3.org/2000/svg" width="32" height="32" viewBox="0 0 32 32">
<path d="M8.703 19.351c0 1.444-1.18 2.624-2.624 2.624s-2.624-1.18-2.624-2.624c0-1.444 1.18-2.624 2.624-2.624h2.624v2.624zM10.025 19.351c0-1.444 1.18-2.624 2.624-2.624s2.624 1.18 2.624 2.624v6.569c0 1.444-1.18 2.624-2.624 2.624s-2.624-1.18-2.624-2.624v-6.569zM12.649 8.703c-1.444 0-2.624-1.18-2.624-2.624s1.18-2.624 2.624-2.624c1.444 0 2.624 1.18 2.624 2.624v2.624h-2.624zM12.649 10.025c1.444 0 2.624 1.18 2.624 2.624s-1.18 2.624-2.624 2.624h-6.569c-1.444 0-2.624-1.18-2.624-2.624s1.18-2.624 2.624-2.624h6.569zM23.298 12.649c0-1.444 1.18-2.624 2.624-2.624s2.624 1.18 2.624 2.624-1.18 2.624-2.624 2.624h-2.624v-2.624zM21.975 12.649c0 1.444-1.18 2.624-2.624 2.624s-2.624-1.18-2.624-2.624v-6.569c0-1.444 1.18-2.624 2.624-2.624s2.624 1.18 2.624 2.624v6.569zM19.352 23.297c1.444 0 2.624 1.18 2.624 2.624s-1.18 2.624-2.624 2.624c-1.444 0-2.624-1.18-2.624-2.624v-2.624h2.624zM19.352 21.975c-1.444 0-2.624-1.18-2.624-2.624s1.18-2.624 2.624-2.624h6.569c1.444 0 2.624 1.18 2.624 2.624s-1.18 2.624-2.624 2.624h-6.569z"></path>
</svg>
