<!-- Generated by IcoMoon.io -->
<svg version="1.1" xmlns="http://www.w3.org/2000/svg" width="32" height="32" viewBox="0 0 32 32">
<path d="M15.829 29.019c-1.587 0-2.645-0.749-3.59-1.409-0.672-0.476-1.302-0.927-2.045-1.052-0.363-0.065-0.731-0.089-1.070-0.089-0.63 0-1.129 0.095-1.486 0.166-0.226 0.042-0.416 0.077-0.565 0.077-0.155 0-0.351-0.042-0.428-0.303-0.065-0.214-0.107-0.416-0.149-0.612-0.107-0.493-0.196-0.797-0.38-0.826-1.985-0.303-3.174-0.761-3.406-1.302-0.018-0.059-0.042-0.119-0.042-0.166-0.012-0.166 0.107-0.303 0.273-0.333 1.575-0.261 2.99-1.1 4.185-2.479 0.927-1.070 1.379-2.104 1.421-2.217 0-0.012 0.012-0.012 0.012-0.012 0.226-0.469 0.273-0.868 0.137-1.195-0.256-0.612-1.1-0.874-1.676-1.052-0.149-0.042-0.273-0.089-0.38-0.125-0.493-0.196-1.314-0.612-1.207-1.189 0.077-0.416 0.63-0.713 1.082-0.713 0.125 0 0.232 0.018 0.321 0.065 0.505 0.232 0.963 0.351 1.355 0.351 0.487 0 0.719-0.184 0.779-0.244-0.012-0.262-0.030-0.535-0.048-0.791-0.119-1.819-0.256-4.078 0.321-5.374 1.73-3.876 5.403-4.185 6.491-4.185 0.030 0 0.475-0.012 0.475-0.012 0.018 0 0.042 0 0.065 0 1.088 0 4.761 0.303 6.491 4.185 0.583 1.296 0.44 3.561 0.321 5.374l-0.012 0.089c-0.012 0.244-0.030 0.476-0.042 0.713 0.059 0.048 0.273 0.226 0.713 0.232 0.38-0.012 0.797-0.137 1.272-0.351 0.149-0.065 0.303-0.089 0.416-0.089 0.166 0 0.333 0.042 0.476 0.089h0.012c0.398 0.149 0.66 0.428 0.66 0.719 0.012 0.273-0.202 0.689-1.219 1.1-0.107 0.042-0.232 0.089-0.38 0.125-0.565 0.172-1.409 0.446-1.676 1.052-0.149 0.321-0.089 0.731 0.137 1.195 0 0.012 0.012 0.012 0.012 0.012 0.065 0.166 1.783 4.066 5.605 4.702 0.166 0.030 0.273 0.166 0.273 0.333 0 0.059-0.012 0.119-0.042 0.172-0.232 0.547-1.409 0.993-3.406 1.302-0.184 0.030-0.273 0.333-0.38 0.826-0.042 0.202-0.089 0.398-0.149 0.612-0.059 0.196-0.184 0.303-0.398 0.303h-0.030c-0.137 0-0.321-0.018-0.565-0.065-0.428-0.089-0.897-0.155-1.486-0.155-0.351 0-0.713 0.030-1.070 0.089-0.737 0.119-1.373 0.577-2.045 1.052-0.957 0.654-2.021 1.403-3.596 1.403 0 0-0.291 0-0.339 0z"></path>
</svg>
