<!-- Generated by IcoMoon.io -->
<svg version="1.1" xmlns="http://www.w3.org/2000/svg" width="32" height="32" viewBox="0 0 32 32">
<path d="M13.952 11.461c0.353 0 0.64 2.808 0.64 6.272l-0.002 0.468c-0.024 3.245-0.301 5.804-0.638 5.804-0.341 0-0.62-2.62-0.639-5.92l-0.001-0.47c0.006-3.41 0.29-6.154 0.64-6.154zM11.733 12.741c0.345 0 0.626 2.4 0.639 5.406v0.453c-0.014 3.005-0.295 5.406-0.639 5.406-0.341 0-0.619-2.34-0.639-5.293l-0.001-0.453 0.003-0.454c0.032-2.844 0.305-5.064 0.637-5.064zM9.515 12.741c0.341 0 0.619 2.34 0.639 5.293l0.001 0.452-0.003 0.454c-0.032 2.844-0.305 5.065-0.637 5.065-0.345 0-0.626-2.4-0.639-5.406v-0.453c0.014-3.005 0.295-5.406 0.639-5.406zM7.296 13.509c0.353 0 0.64 2.35 0.64 5.248l-0.002 0.447c-0.028 2.689-0.303 4.801-0.638 4.801-0.349 0-0.633-2.289-0.64-5.135v-0.225c0.007-2.846 0.291-5.135 0.64-5.135zM5.077 15.813c0.353 0 0.64 1.834 0.64 4.096l-0.001 0.211c-0.017 2.164-0.297 3.885-0.639 3.885-0.353 0-0.64-1.834-0.64-4.096l0.001-0.211c0.017-2.164 0.297-3.885 0.639-3.885zM19.456 9.413c3.441 0 6.295 2.514 6.824 5.806 0.394-0.113 0.81-0.174 1.24-0.174 2.474 0 4.48 2.006 4.48 4.48 0 2.446-1.96 4.434-4.396 4.479l-0.084 0.001h-10.88c-0.566 0-1.024-0.459-1.024-1.024v-12.404c1.098-0.735 2.419-1.164 3.84-1.164zM2.859 15.557c0.353 0 0.64 1.777 0.64 3.968l-0.001 0.207c-0.017 2.095-0.297 3.761-0.639 3.761-0.348 0-0.631-1.721-0.64-3.864l-0-0.104c0-2.191 0.287-3.968 0.64-3.968zM0.64 16.837c0.353 0 0.64 1.261 0.64 2.816l-0.001 0.175c-0.020 1.474-0.299 2.641-0.639 2.641-0.353 0-0.64-1.261-0.64-2.816l0.001-0.175c0.021-1.474 0.299-2.641 0.639-2.641z"></path>
</svg>
