<!-- Generated by IcoMoon.io -->
<svg version="1.1" xmlns="http://www.w3.org/2000/svg" width="32" height="32" viewBox="0 0 32 32">
<path d="M17.6 2.675c10.722 0.116 11.735 1.659 11.735 13.326l-0.008 1.599c-0.116 10.722-1.659 11.735-13.326 11.735l-1.599-0.008c-10.212-0.111-11.616-1.515-11.727-11.727l-0.007-2.011 0.007-1.186c0.113-10.467 1.586-11.681 12.509-11.733l2.415 0.006zM11.001 9.333h-0.778c-0.446 0-0.816 0.329-0.879 0.758l-0.010 0.131v4.889c0 0.447 0.329 0.816 0.758 0.879l0.131 0.010h0.778c2.672 0 4.855 2.097 4.993 4.734l0.007 0.266v0.778c0 0.447 0.329 0.816 0.758 0.879l0.131 0.010h4.889c0.446 0 0.816-0.329 0.879-0.757l0.010-0.131v-0.778c0-6.328-5.038-11.48-11.323-11.662l-0.344-0.005z"></path>
</svg>
