<!-- Generated by IcoMoon.io -->
<svg version="1.1" xmlns="http://www.w3.org/2000/svg" width="32" height="32" viewBox="0 0 32 32">
<path d="M16.001 2.667c-7.333 0-13.333 6-13.333 13.333s6 13.333 13.333 13.333c7.333 0 13.333-6 13.333-13.333s-5.933-13.333-13.333-13.333zM21.001 22.2c-3.133-1.933-7.067-2.334-11.734-1.268-0.464 0.135-0.866-0.199-0.999-0.599-0.133-0.468 0.2-0.867 0.6-1 5.067-1.134 9.467-0.667 12.933 1.467 0.467 0.2 0.532 0.732 0.334 1.133-0.267 0.399-0.733 0.533-1.134 0.267zM22.333 18.6c-3.599-2.2-9.066-2.867-13.265-1.533-0.532 0.133-1.133-0.133-1.267-0.667s0.133-1.134 0.667-1.268c4.867-1.466 10.867-0.731 15 1.801 0.401 0.201 0.6 0.867 0.268 1.333-0.334 0.467-0.934 0.667-1.402 0.333zM8.401 13.001c-0.667 0.199-1.333-0.201-1.533-0.801-0.2-0.668 0.2-1.333 0.8-1.534 4.733-1.4 12.533-1.133 17.468 1.801 0.599 0.333 0.799 1.133 0.466 1.733-0.332 0.468-1.133 0.666-1.732 0.333-4.268-2.533-11.401-2.8-15.468-1.532z"></path>
</svg>
