<!-- Generated by IcoMoon.io -->
<svg version="1.1" xmlns="http://www.w3.org/2000/svg" width="32" height="32" viewBox="0 0 32 32">
<path d="M28.001 4c0.736 0 1.333 0.597 1.333 1.333v21.333c0 0.736-0.597 1.333-1.333 1.333h-24c-0.736 0-1.333-0.597-1.333-1.333v-21.333c0-0.736 0.597-1.333 1.333-1.333h24zM22.391 7.495c-1.348 0-2.485 0.901-2.844 2.134h-2.665l-3.279 5.579h-1.917c-0.358-1.233-1.496-2.134-2.844-2.134-1.636 0-2.962 1.326-2.962 2.962s1.326 2.962 2.962 2.962c1.348 0 2.486-0.901 2.844-2.134h1.961l3.223 5.511h2.69c0.358 1.232 1.496 2.133 2.844 2.133 1.636 0 2.962-1.326 2.962-2.962s-1.326-2.962-2.962-2.962c-1.348 0-2.485 0.901-2.844 2.134h-1.756l-2.741-4.716 2.737-4.717h1.748c0.359 1.233 1.496 2.134 2.844 2.134 1.636 0 2.962-1.326 2.962-2.962s-1.326-2.962-2.962-2.962zM22.406 20.065c0.858 0 1.557 0.698 1.557 1.557s-0.698 1.556-1.557 1.556c-0.755 0-1.385-0.54-1.526-1.254 0 0-0.041-0.302 0-0.605 0.141-0.714 0.771-1.255 1.526-1.255zM8.869 14.452c0.858 0 1.557 0.698 1.557 1.556s-0.698 1.556-1.557 1.556c-0.858 0-1.556-0.698-1.556-1.556s0.698-1.556 1.556-1.556zM22.403 8.839c0.858 0 1.557 0.698 1.557 1.556s-0.698 1.556-1.557 1.556c-0.754 0-1.385-0.54-1.526-1.254-0.035-0.275 0-0.595 0-0.595 0.141-0.723 0.772-1.264 1.526-1.264z"></path>
</svg>
