<!-- Generated by IcoMoon.io -->
<svg version="1.1" xmlns="http://www.w3.org/2000/svg" width="32" height="32" viewBox="0 0 32 32">
<path d="M16.007 2.667c-7.001 0-12.742 5.4-13.286 12.263l7.147 2.953c0.606-0.412 1.337-0.656 2.124-0.656 0.070 0 0.139 0.005 0.209 0.007l3.179-4.602v-0.066c0-2.772 2.253-5.027 5.027-5.027 2.771 0 5.027 2.257 5.027 5.030s-2.256 5.028-5.027 5.028h-0.117l-4.529 3.235c0 0.058 0.004 0.117 0.004 0.177 0 2.083-1.683 3.773-3.767 3.773-1.817 0-3.351-1.303-3.701-3.030l-5.117-2.119c1.584 5.597 6.722 9.7 12.826 9.7 7.363 0 13.332-5.97 13.332-13.333s-5.97-13.333-13.332-13.333zM9.438 22.222c0.291 0.603 0.793 1.11 1.46 1.389 1.441 0.599 3.103-0.084 3.702-1.528 0.292-0.7 0.293-1.466 0.005-2.166s-0.833-1.245-1.53-1.537c-0.693-0.289-1.433-0.277-2.087-0.033l1.692 0.7c1.062 0.445 1.566 1.667 1.121 2.728-0.441 1.063-1.663 1.567-2.727 1.124l-1.638-0.678zM23.758 12.563c0-1.847-1.503-3.35-3.35-3.35-1.85 0-3.35 1.503-3.35 3.35 0 1.85 1.5 3.35 3.35 3.35 1.848 0 3.35-1.5 3.35-3.35zM20.416 10.040c1.388 0 2.518 1.127 2.518 2.518 0 1.39-1.13 2.517-2.518 2.517-1.392 0-2.517-1.127-2.517-2.517 0-1.391 1.126-2.518 2.517-2.518z"></path>
</svg>
