<!-- Generated by IcoMoon.io -->
<svg version="1.1" xmlns="http://www.w3.org/2000/svg" width="32" height="32" viewBox="0 0 32 32">
<path d="M14.653 2.632c3.892-2.48 9.276-1.324 12.002 2.578 0.647 0.905 1.108 1.931 1.353 3.016s0.271 2.209 0.076 3.304c-0.189 1.046-0.588 2.043-1.173 2.931 0.853 1.628 1.139 3.494 0.813 5.303-0.193 1.074-0.607 2.096-1.217 3s-1.402 1.672-2.326 2.253l-6.836 4.357c-3.892 2.481-9.276 1.324-12.002-2.578-0.647-0.905-1.106-1.931-1.351-3.016s-0.271-2.209-0.077-3.304c0.189-1.046 0.588-2.043 1.173-2.931-0.854-1.628-1.141-3.493-0.815-5.302 0.193-1.074 0.608-2.096 1.218-3.001s1.403-1.672 2.327-2.253l6.835-4.357zM10.732 27c1.042 0.386 2.178 0.444 3.254 0.164 0.491-0.131 0.96-0.337 1.389-0.61l6.837-4.355c0.555-0.349 1.032-0.811 1.399-1.355s0.616-1.159 0.732-1.804c0.117-0.659 0.101-1.334-0.046-1.987s-0.424-1.269-0.813-1.814c-0.633-0.913-1.532-1.61-2.574-1.997s-2.178-0.444-3.254-0.164c-0.491 0.131-0.96 0.337-1.389 0.61l-2.608 1.662c-0.13 0.082-0.271 0.144-0.419 0.183-0.324 0.084-0.666 0.067-0.98-0.050s-0.585-0.327-0.776-0.602c-0.117-0.164-0.2-0.35-0.245-0.547s-0.049-0.4-0.014-0.599c0.035-0.195 0.11-0.38 0.221-0.543s0.254-0.303 0.421-0.408l6.838-4.358c0.13-0.082 0.271-0.144 0.419-0.183 0.324-0.084 0.666-0.067 0.98 0.049s0.585 0.327 0.776 0.602c0.209 0.296 0.307 0.656 0.276 1.016l-0.024 0.254 0.254 0.077c0.961 0.29 1.865 0.742 2.673 1.337l0.35 0.257 0.129-0.393c0.069-0.209 0.124-0.422 0.164-0.638 0.117-0.659 0.101-1.334-0.046-1.987s-0.424-1.269-0.813-1.814c-0.634-0.913-1.532-1.61-2.574-1.997s-2.178-0.444-3.254-0.164c-0.491 0.131-0.96 0.337-1.389 0.61l-6.837 4.357c-0.556 0.349-1.032 0.81-1.4 1.354s-0.617 1.158-0.733 1.804c-0.117 0.659-0.101 1.334 0.046 1.987s0.424 1.269 0.813 1.814c0.634 0.913 1.532 1.61 2.574 1.997s2.178 0.444 3.254 0.164c0.491-0.131 0.96-0.337 1.389-0.61l2.609-1.663c0.13-0.082 0.271-0.144 0.419-0.183 0.324-0.084 0.667-0.067 0.981 0.050s0.585 0.327 0.776 0.602c0.117 0.164 0.2 0.35 0.245 0.547s0.049 0.4 0.014 0.599c-0.035 0.195-0.11 0.38-0.221 0.543s-0.254 0.303-0.421 0.408l-6.836 4.357c-0.13 0.082-0.271 0.144-0.419 0.183-0.324 0.084-0.666 0.067-0.98-0.049s-0.585-0.327-0.776-0.602c-0.209-0.295-0.307-0.655-0.276-1.016l0.023-0.254-0.254-0.077c-0.961-0.29-1.865-0.742-2.673-1.337l-0.35-0.257-0.129 0.393c-0.069 0.209-0.124 0.422-0.163 0.638-0.117 0.659-0.101 1.334 0.046 1.987s0.424 1.269 0.813 1.814c0.634 0.913 1.532 1.61 2.574 1.997z"></path>
</svg>
