<!-- Generated by IcoMoon.io -->
<svg version="1.1" xmlns="http://www.w3.org/2000/svg" width="32" height="32" viewBox="0 0 32 32">
<path d="M18.16 28c-0.113 0-0.189-0.075-0.17-0.17v-23.661c0-0.075 0.057-0.151 0.151-0.151h3.714c3.394 0 6.146 2.753 6.146 6.146v11.689c0 3.394-2.753 6.146-6.146 6.146h-3.695zM22.722 14.765c-1.339 0-2.432 1.094-2.432 2.432s1.093 2.432 2.432 2.432c1.339 0 2.432-1.093 2.432-2.432s-1.093-2.432-2.432-2.432zM7.734 11.202c0-1.244 1.018-2.262 2.262-2.262s2.262 1.018 2.262 2.262c0 1.244-1.018 2.262-2.262 2.262s-2.262-1.018-2.262-2.262zM15.389 4c0.113 0 0.189 0.075 0.17 0.17v23.642c0 0.094-0.075 0.17-0.17 0.17h-5.241c-3.394 0-6.146-2.753-6.146-6.146v-11.689c0-3.394 2.753-6.146 6.146-6.146h5.241zM13.635 26.058v-20.135h-3.488c-1.131 0-2.187 0.452-2.979 1.244-0.811 0.792-1.244 1.848-1.244 2.979v11.689c0 1.131 0.452 2.187 1.244 2.979 0.792 0.811 1.848 1.244 2.979 1.244h3.488z"></path>
</svg>
