<!-- Generated by IcoMoon.io -->
<svg version="1.1" xmlns="http://www.w3.org/2000/svg" width="32" height="32" viewBox="0 0 32 32">
<path d="M15.999 6.48c-4.231 0-6.876 2.116-7.933 6.347 1.587-2.116 3.438-2.909 5.553-2.38 1.207 0.301 2.069 1.177 3.025 2.147 1.556 1.579 3.356 3.406 7.288 3.406 4.231 0 6.876-2.116 7.933-6.347-1.587 2.116-3.438 2.909-5.553 2.38-1.207-0.301-2.069-1.177-3.025-2.147-1.555-1.579-3.355-3.406-7.288-3.406zM8.066 16c-4.231 0-6.876 2.116-7.933 6.347 1.587-2.116 3.438-2.909 5.553-2.38 1.207 0.301 2.069 1.177 3.025 2.147 1.556 1.579 3.356 3.406 7.288 3.406 4.231 0 6.876-2.116 7.933-6.347-1.587 2.116-3.438 2.909-5.553 2.38-1.207-0.301-2.069-1.177-3.025-2.147-1.555-1.579-3.354-3.406-7.288-3.406z"></path>
</svg>
