<!-- Generated by IcoMoon.io -->
<svg version="1.1" xmlns="http://www.w3.org/2000/svg" width="32" height="32" viewBox="0 0 32 32">
<path d="M4.768 11.036l-1.591 2.457 2.935 1.828c0 0 1.951 1.005 1.016 2.892-0.865 1.785-5.128 5.693-5.128 5.693l3.817 2.397c2.645-5.768 2.467-4.999 3.128-7.074 0.683-2.107 0.833-3.725-0.323-4.902-1.484-1.5-1.65-1.64-3.854-3.29zM6.854 10.111c1.387 0 2.51-1.011 2.51-2.258 0-1.258-1.123-2.268-2.51-2.268-1.398 0-2.516 1.016-2.516 2.268 0.005 1.242 1.118 2.258 2.516 2.258zM29.528 10.391c0 0-0.833-6.494-14.944-2.473 0.607-1.059 0.892-1.742 0.892-1.742l-3.521-1c0 0-1.425 4.677-3.962 6.854 0 0 2.462 1.43 2.435 1.387 0.704-0.71 1.338-1.43 1.876-2.129 0.564-0.253 1.107-0.484 1.634-0.699-0.656 1.183-1.704 2.957-2.758 4.075l1.484 1.312c0 0 1.016-0.984 2.118-2.161h1.258v2.182h-4.913v1.742h4.913v4.177l-0.188-0.005c-0.543-0.027-1.381-0.118-1.715-0.645-0.398-0.645-0.102-1.811-0.086-2.537h-3.392l-0.124 0.070c0 0-1.247 5.607 3.585 5.483 4.515 0.124 7.106-1.274 8.353-2.236l0.495 1.86 2.785-1.177-1.887-4.644-2.258 0.715 0.419 1.586c-0.57 0.441-1.242 0.763-1.957 1.005v-3.65h4.789v-1.747h-4.789v-2.183h4.806v-1.742h-8.547c0.618-0.758 1.097-1.451 1.226-1.887l-1.494-0.409c6.397-2.311 9.961-1.914 9.934 1.871v9.966c0 0 0.376 3.419-3.516 3.177l-2.107-0.457-0.489 2.016c0 0 9.090 2.623 9.832-4.419 0.737-7.042-0.188-11.536-0.188-11.536z"></path>
</svg>
