<!-- Generated by IcoMoon.io -->
<svg version="1.1" xmlns="http://www.w3.org/2000/svg" width="32" height="32" viewBox="0 0 32 32">
<path d="M29.333 16c0 7.364-5.97 13.333-13.333 13.333s-13.333-5.97-13.333-13.333c0-7.364 5.97-13.333 13.333-13.333s13.333 5.97 13.333 13.333zM16.478 12.51c-1.297 0.539-3.889 1.656-7.776 3.349-0.631 0.251-0.962 0.497-0.992 0.737-0.051 0.406 0.457 0.566 1.149 0.783 0.094 0.030 0.192 0.060 0.292 0.093 0.681 0.221 1.597 0.48 2.073 0.49 0.432 0.009 0.914-0.169 1.446-0.534 3.632-2.451 5.506-3.691 5.624-3.717 0.083-0.019 0.198-0.043 0.276 0.027s0.070 0.201 0.062 0.236c-0.050 0.215-2.045 2.069-3.077 3.029-0.308 0.286-0.608 0.578-0.91 0.87-0.632 0.61-1.107 1.067 0.026 1.813 1.149 0.757 2.306 1.512 3.426 2.311 0.552 0.394 1.049 0.748 1.662 0.691 0.356-0.033 0.724-0.368 0.911-1.367 0.442-2.361 1.31-7.478 1.511-9.586 0.018-0.185-0.005-0.421-0.022-0.525s-0.055-0.252-0.19-0.361c-0.16-0.13-0.406-0.157-0.517-0.155-0.502 0.009-1.271 0.276-4.974 1.816z"></path>
</svg>
