<!-- Generated by IcoMoon.io -->
<svg version="1.1" xmlns="http://www.w3.org/2000/svg" width="32" height="32" viewBox="0 0 32 32">
<path d="M2.863 15.747c6.997-3.048 11.662-5.058 13.996-6.029 6.665-2.772 8.050-3.254 8.953-3.27 0.199-0.003 0.643 0.046 0.93 0.279 0.243 0.197 0.31 0.463 0.342 0.65s0.072 0.612 0.040 0.945c-0.361 3.795-1.924 13.004-2.719 17.255-0.336 1.799-0.999 2.401-1.64 2.461-1.394 0.128-2.452-0.921-3.802-1.806-2.112-1.385-3.306-2.247-5.356-3.598-2.37-1.561-0.833-2.42 0.517-3.822 0.353-0.367 6.494-5.953 6.613-6.459 0.015-0.063 0.029-0.3-0.112-0.424s-0.347-0.082-0.497-0.048c-0.212 0.048-3.586 2.278-10.123 6.691-0.958 0.658-1.825 0.978-2.603 0.961-0.857-0.019-2.505-0.485-3.731-0.883-1.503-0.489-2.698-0.747-2.594-1.577 0.054-0.432 0.649-0.874 1.785-1.326z"></path>
</svg>
