<!-- Generated by IcoMoon.io -->
<svg version="1.1" xmlns="http://www.w3.org/2000/svg" width="32" height="32" viewBox="0 0 32 32">
<path d="M22.273 14.811c-0.216-3.982-2.392-6.262-6.046-6.285-2.202-0.014-4.044 0.92-5.171 2.63l2.009 1.378c0.845-1.283 2.18-1.547 3.147-1.538 1.203 0.008 2.111 0.357 2.699 1.040 0.427 0.497 0.713 1.183 0.855 2.049-1.067-0.181-2.22-0.237-3.453-0.166-3.474 0.2-5.707 2.226-5.557 5.041 0.076 1.428 0.788 2.657 2.003 3.459 1.028 0.678 2.351 1.010 3.727 0.935 1.817-0.1 3.242-0.793 4.236-2.060 0.755-0.963 1.233-2.21 1.444-3.781 0.866 0.523 1.507 1.21 1.862 2.037 0.603 1.405 0.638 3.714-1.246 5.597-1.651 1.649-3.635 2.363-6.634 2.385-3.326-0.025-5.842-1.091-7.478-3.171-1.532-1.947-2.323-4.759-2.353-8.359 0.030-3.599 0.821-6.412 2.353-8.359 1.636-2.079 4.151-3.146 7.478-3.171 3.351 0.025 5.91 1.097 7.608 3.186 0.833 1.025 1.461 2.313 1.874 3.815l2.355-0.628c-0.502-1.849-1.291-3.443-2.365-4.764-2.177-2.679-5.378-4.051-9.48-4.080-4.094 0.028-7.243 1.406-9.358 4.095-1.882 2.393-2.853 5.742-2.886 9.915 0.033 4.173 1.004 7.503 2.886 9.895 2.115 2.689 5.28 4.067 9.374 4.095 3.64-0.025 6.206-0.978 8.32-3.090 2.765-2.763 2.682-6.226 1.771-8.352-0.7-1.632-2.094-2.941-3.973-3.747zM16.356 20.886c-1.523 0.086-3.104-0.598-3.182-2.061-0.058-1.085 0.772-2.296 3.276-2.441 1.23-0.071 2.369 0.012 3.378 0.233-0.288 3.602-1.98 4.187-3.471 4.269z"></path>
</svg>
