<!-- Generated by IcoMoon.io -->
<svg version="1.1" xmlns="http://www.w3.org/2000/svg" width="32" height="32" viewBox="0 0 32 32">
<path d="M7.001 4h18c1.656 0 3 1.343 3 3v18c0 1.656-1.343 3-3 3h-18c-1.656 0-3-1.343-3-3v-18c0-1.656 1.343-3 3-3zM17.561 8.561v7.679c0 0.796 0.645 1.441 1.44 1.441h4.441c0.795 0 1.44-0.645 1.44-1.441v-7.679c0-0.796-0.645-1.441-1.44-1.441h-4.441c-0.795 0-1.44 0.645-1.44 1.441zM7.121 8.561v13.679c0 0.795 0.645 1.441 1.44 1.441h4.441c0.795 0 1.44-0.644 1.44-1.441v-13.679c0-0.796-0.645-1.441-1.44-1.441h-4.441c-0.795 0-1.44 0.644-1.44 1.441z"></path>
</svg>
