<!-- Generated by IcoMoon.io -->
<svg version="1.1" xmlns="http://www.w3.org/2000/svg" width="32" height="32" viewBox="0 0 32 32">
<path d="M29.617 7.541c-1.018 0.45-2.097 0.746-3.203 0.877 1.164-0.697 2.036-1.794 2.452-3.085-1.094 0.65-2.292 1.108-3.541 1.353-1.054-1.125-2.528-1.762-4.069-1.76-3.079 0-5.576 2.496-5.576 5.577 0 0.437 0.050 0.861 0.144 1.27-4.636-0.233-8.743-2.452-11.494-5.826-0.495 0.851-0.756 1.818-0.754 2.803 0 1.935 0.985 3.642 2.481 4.642-0.886-0.028-1.751-0.267-2.526-0.698-0.001 0.023-0.001 0.047-0.001 0.069 0 2.703 1.922 4.957 4.474 5.469-0.479 0.13-0.973 0.195-1.469 0.195-0.36 0-0.71-0.033-1.050-0.098 0.71 2.215 2.768 3.827 5.209 3.872-1.975 1.55-4.415 2.391-6.926 2.388-0.444 0-0.888-0.026-1.33-0.078 2.549 1.639 5.517 2.509 8.547 2.505 10.258 0 15.866-8.497 15.866-15.865 0-0.241-0.006-0.483-0.017-0.722 1.092-0.789 2.034-1.766 2.783-2.885z"></path>
</svg>
