<!-- Generated by IcoMoon.io -->
<svg version="1.1" xmlns="http://www.w3.org/2000/svg" width="32" height="32" viewBox="0 0 32 32">
<path d="M29.335 16c0 7.363-5.969 13.333-13.333 13.333s-13.333-5.97-13.333-13.333c0-7.364 5.97-13.333 13.333-13.333s13.333 5.969 13.333 13.333zM6.935 14.219c-0.984 0-1.78 0.797-1.78 1.781s0.797 1.78 1.78 1.78c0.983 0 1.78-0.797 1.78-1.78s-0.797-1.781-1.78-1.781zM19.645 22.31c-0.851 0.492-1.143 1.58-0.651 2.431 0.491 0.851 1.579 1.144 2.43 0.652s1.143-1.58 0.652-2.432c-0.492-0.85-1.58-1.142-2.431-0.651v0zM10.802 16c0-1.759 0.874-3.313 2.211-4.254l-1.301-2.18c-1.558 1.041-2.717 2.633-3.198 4.495 0.562 0.459 0.922 1.157 0.922 1.94 0 0.781-0.36 1.48-0.922 1.939 0.481 1.863 1.64 3.454 3.198 4.496l1.301-2.181c-1.337-0.941-2.211-2.494-2.211-4.254h0zM16.001 10.8c2.717 0 4.945 2.083 5.179 4.739l2.537-0.037c-0.125-1.961-0.982-3.722-2.298-5.016-0.677 0.255-1.459 0.217-2.134-0.174-0.677-0.391-1.101-1.049-1.217-1.765-0.658-0.181-1.35-0.28-2.066-0.28-1.23 0-2.394 0.288-3.427 0.8l1.237 2.217c0.666-0.31 1.408-0.484 2.19-0.484zM16.001 21.199c-0.783 0-1.525-0.174-2.19-0.483l-1.237 2.216c1.033 0.512 2.197 0.802 3.427 0.802 0.716 0 1.409-0.1 2.066-0.282 0.116-0.715 0.541-1.374 1.218-1.765 0.676-0.39 1.457-0.429 2.134-0.174 1.316-1.294 2.173-3.054 2.298-5.016l-2.538-0.037c-0.233 2.657-2.461 4.739-5.178 4.739l-0-0zM19.645 9.689c0.851 0.491 1.94 0.2 2.431-0.651 0.492-0.852 0.201-1.939-0.651-2.431s-1.939-0.2-2.431 0.651c-0.491 0.851-0.199 1.939 0.652 2.431v0z"></path>
</svg>
