<!-- Generated by IcoMoon.io -->
<svg version="1.1" xmlns="http://www.w3.org/2000/svg" width="32" height="32" viewBox="0 0 32 32">
<path d="M1.566 11.068c-0.376-0.551-0.336-0.551 0.437-1.23 1.643-1.443 3.193-3.021 4.982-4.282 1.62-1.136 3.768-1.869 5.235-0.062 1.353 1.665 1.384 4.189 1.727 6.199 0.343 2.085 0.671 4.219 1.402 6.215 0.202 0.561 0.589 1.622 1.291 1.711 0.903 0.124 1.824-1.461 2.243-2.054 1.090-1.573 2.567-3.691 2.38-5.715-0.183-2.149-2.505-1.745-3.954-1.232 0.233-2.412 2.477-5.124 4.639-6.041 2.293-0.951 5.702-0.935 6.854 1.651 1.23 2.802 0.124 6.057-1.216 8.597-1.463 2.758-3.346 5.31-5.358 7.693-1.775 2.117-3.875 4.44-6.521 5.452-3.022 1.152-4.813-1.093-5.842-3.693-1.123-2.831-1.682-6.008-2.493-8.955-0.341-1.246-0.746-2.664-1.555-3.691-1.056-1.327-2.256-0.080-3.299 0.636-0.358-0.355-0.655-0.809-0.951-1.198z"></path>
</svg>
