<!-- Generated by IcoMoon.io -->
<svg version="1.1" xmlns="http://www.w3.org/2000/svg" width="32" height="32" viewBox="0 0 32 32">
<path d="M1.333 5.333h29.333v2.667h-29.333v-2.667zM1.333 24h29.333v2.667h-29.333v-2.667zM26.162 19.885l-0.232-1.16-2.598-0-0.413 1.151-2.083 0.005c1.339-3.209 2.332-5.587 2.98-7.132 0.169-0.404 0.47-0.609 0.914-0.606 0.338 0.003 0.891 0.003 1.659 0.001l1.61 7.737-1.838 0.004zM23.917 17.136h1.675l-0.625-2.907-1.050 2.907zM10.496 12.141l2.094 0.003-3.236 7.741-2.12-0.001c-0.717-2.761-1.243-4.807-1.579-6.14-0.103-0.409-0.308-0.694-0.701-0.829-0.351-0.12-0.936-0.306-1.754-0.558v-0.212c1.53-0 2.645-0 3.345 0 0.579 0 0.917 0.279 1.025 0.852 0.109 0.575 0.384 2.037 0.826 4.386l2.1-5.24zM15.466 12.144l-1.654 7.74-1.993-0.003c0.039-0.188 0.59-2.768 1.652-7.74l1.995 0.003zM19.508 12c0.595 0 1.346 0.185 1.779 0.356l-0.35 1.605c-0.391-0.157-1.033-0.368-1.574-0.36-0.786 0.012-1.272 0.341-1.272 0.657 0 0.513 0.843 0.771 1.712 1.332 0.99 0.64 1.121 1.213 1.109 1.838-0.014 1.295-1.109 2.572-3.419 2.572-1.055-0.016-1.434-0.104-2.294-0.409l0.363-1.675c0.875 0.366 1.246 0.482 1.994 0.482 0.685 0 1.274-0.276 1.279-0.758 0.004-0.342-0.206-0.512-0.976-0.935s-1.847-1.009-1.833-2.187c0.018-1.508 1.449-2.519 3.481-2.519z"></path>
</svg>
