<!-- Generated by IcoMoon.io -->
<svg version="1.1" xmlns="http://www.w3.org/2000/svg" width="32" height="32" viewBox="0 0 32 32">
<path d="M5.68 5.68c-1.68 1.696-1.68 4.408-1.68 9.84v0.96c0 5.424 0 8.136 1.68 9.84 1.696 1.68 4.408 1.68 9.84 1.68h0.96c5.424 0 8.136 0 9.84-1.68 1.68-1.696 1.68-4.408 1.68-9.84v-0.96c0-5.424 0-8.136-1.68-9.84-1.696-1.68-4.408-1.68-9.84-1.68h-0.96c-5.424 0-8.136 0-9.84 1.68zM8.048 11.304h2.752c0.088 4.576 2.104 6.512 3.704 6.912v-6.912h2.584v3.944c1.576-0.168 3.24-1.968 3.8-3.952h2.576c-0.21 1.027-0.63 2-1.233 2.857s-1.376 1.581-2.271 2.127c0.999 0.497 1.882 1.201 2.589 2.064s1.224 1.867 1.515 2.944h-2.84c-0.608-1.896-2.128-3.368-4.136-3.568v3.568h-0.32c-5.472 0-8.592-3.744-8.72-9.984z"></path>
</svg>
