<!-- Generated by IcoMoon.io -->
<svg version="1.1" xmlns="http://www.w3.org/2000/svg" width="32" height="32" viewBox="0 0 32 32">
<path d="M18.001 5.865c1.627 0.94 2.347 2.853 1.842 4.582l2.56 0.747c0.841-2.881-0.352-6.070-3.069-7.638-3.189-1.841-7.266-0.748-9.107 2.44-1.613 2.793-0.974 6.268 1.352 8.325l-2.509 4.346h-0.004c-1.473 0-2.667 1.194-2.667 2.667s1.194 2.667 2.667 2.667 2.667-1.194 2.667-2.667c0-0.213-0.025-0.419-0.072-0.618-0.11-0.463-0.136-0.966 0.102-1.379l3.393-5.877-1.155-0.667c-1.913-1.105-2.569-3.551-1.464-5.464s3.551-2.569 5.464-1.464zM20.042 24.107c1.245 1.301 3.261 1.635 4.889 0.695 1.913-1.105 2.569-3.551 1.464-5.464s-3.551-2.569-5.464-1.464l-1.155 0.667-3.394-5.878c-0.238-0.412-0.687-0.641-1.143-0.777-0.195-0.058-0.387-0.14-0.571-0.247-1.275-0.736-1.713-2.367-0.976-3.643s2.367-1.712 3.643-0.976 1.712 2.367 0.976 3.643l-0.002 0.004 2.51 4.347c2.944-0.987 6.273 0.198 7.885 2.991 1.841 3.189 0.748 7.266-2.44 9.107-2.717 1.568-6.075 1.007-8.149-1.162l1.927-1.843zM5.066 21.334c0-1.879 1.297-3.459 3.047-3.886l-0.633-2.591c-2.916 0.712-5.081 3.34-5.081 6.477 0 3.682 2.985 6.667 6.667 6.667 3.225 0 5.916-2.29 6.533-5.333l5.021 0.004c0.736 1.275 2.367 1.712 3.643 0.976s1.712-2.367 0.976-3.643c-0.736-1.275-2.367-1.713-3.643-0.976-0.184 0.106-0.351 0.231-0.499 0.371-0.346 0.327-0.769 0.601-1.245 0.601h-6.787v1.333c0 2.209-1.791 4-4 4s-4-1.791-4-4z"></path>
</svg>
