<!-- Generated by IcoMoon.io -->
<svg version="1.1" xmlns="http://www.w3.org/2000/svg" width="32" height="32" viewBox="0 0 32 32">
<path d="M24.767 18.282c0.665 0 1.197-0.565 1.197-1.197 0-0.665-0.532-1.197-1.197-1.197s-1.197 0.532-1.197 1.197 0.532 1.197 1.197 1.197zM18.866 18.282c0.665 0 1.197-0.565 1.197-1.197 0-0.665-0.532-1.197-1.197-1.197s-1.197 0.532-1.197 1.197 0.532 1.197 1.197 1.197zM27.623 25.002c-0.164 0.098-0.262 0.262-0.229 0.491 0 0.065 0 0.131 0.033 0.197 0.131 0.557 0.393 1.442 0.393 1.475 0 0.098 0.033 0.164 0.033 0.229 0 0.164-0.131 0.295-0.295 0.295-0.066 0-0.098-0.033-0.164-0.066l-1.932-1.114c-0.131-0.065-0.295-0.131-0.459-0.131-0.098 0-0.196 0-0.262 0.033-0.917 0.262-1.867 0.393-2.882 0.393-4.879 0-8.809-3.277-8.809-7.34s3.929-7.34 8.809-7.34c4.879 0 8.809 3.277 8.809 7.34 0 2.195-1.179 4.194-3.045 5.538zM22.232 10.797c-0.124-0.004-0.248-0.006-0.372-0.006-5.566 0-10.142 3.814-10.142 8.673 0 0.738 0.106 1.452 0.304 2.132h-0.119c-1.182 0-2.363-0.196-3.446-0.491-0.098-0.033-0.197-0.033-0.295-0.033-0.197 0-0.394 0.065-0.558 0.164l-2.33 1.341c-0.066 0.033-0.131 0.065-0.197 0.065-0.197 0-0.361-0.163-0.361-0.36 0-0.098 0.033-0.164 0.066-0.262 0.033-0.033 0.328-1.112 0.492-1.766 0-0.065 0.033-0.164 0.033-0.229 0-0.262-0.131-0.458-0.295-0.589-2.265-1.603-3.676-3.99-3.676-6.64 0-4.873 4.759-8.798 10.601-8.798 5.019 0 9.238 2.891 10.296 6.797zM15.36 11.355c0.764 0 1.368-0.636 1.368-1.368 0-0.764-0.605-1.368-1.368-1.368s-1.368 0.605-1.368 1.368c0 0.764 0.605 1.368 1.368 1.368zM8.347 11.355c0.764 0 1.368-0.636 1.368-1.368 0-0.764-0.605-1.368-1.368-1.368s-1.368 0.605-1.368 1.368c0 0.764 0.605 1.368 1.368 1.368z"></path>
</svg>
