<!-- Generated by IcoMoon.io -->
<svg version="1.1" xmlns="http://www.w3.org/2000/svg" width="32" height="32" viewBox="0 0 32 32">
<path d="M12.361 19.559c-0.424 0.216-0.943 0.058-1.173-0.359l-0.058-0.126-2.423-5.331c-0.010-0.064-0.010-0.13 0-0.194-0-0.117 0.047-0.23 0.131-0.312s0.197-0.127 0.315-0.124c0.095-0.002 0.187 0.029 0.262 0.087l2.908 2.036c0.215 0.144 0.468 0.222 0.727 0.223 0.156 0.001 0.311-0.029 0.456-0.087l13.396-6c-2.78-3.070-6.754-4.785-10.895-4.701-7.367 0-13.338 4.973-13.338 11.157 0.088 3.38 1.807 6.509 4.614 8.394 0.302 0.222 0.43 0.611 0.32 0.969l-0.601 2.268c-0.036 0.103-0.059 0.211-0.068 0.32-0.003 0.119 0.043 0.234 0.128 0.318s0.199 0.13 0.318 0.128c0.089-0.005 0.176-0.032 0.252-0.078l2.908-1.687c0.213-0.131 0.458-0.202 0.708-0.204 0.131-0 0.262 0.019 0.388 0.058 1.416 0.4 2.881 0.603 4.352 0.601 7.367 0 13.348-4.973 13.348-11.109 0.013-1.829-0.495-3.625-1.464-5.176l-15.509 8.928z"></path>
</svg>
