<!-- Generated by IcoMoon.io -->
<svg version="1.1" xmlns="http://www.w3.org/2000/svg" width="32" height="32" viewBox="0 0 32 32">
<path d="M25.592 4.242c1.549-0.627 2.873-0.026 3.563 1.702 1.857 4.648-2.49 22.234-5.901 22.234-1.103 0-2.209-0.918-3.498-2.569-0.581-0.744-1.187-1.631-1.81-2.631-0.499-0.801-0.989-1.642-1.459-2.494l-0.487-0.897-0.023 0.043c-0.609 1.14-1.259 2.281-1.923 3.348-0.623 1.001-1.229 1.887-1.81 2.631-1.288 1.651-2.394 2.569-3.498 2.569-3.411 0-7.758-17.586-5.901-22.234 0.69-1.728 2.014-2.329 3.564-1.702 1.123 0.454 2.363 1.541 3.748 3.168 0.824 0.968 1.687 2.115 2.574 3.404 0.983 1.427 1.945 2.954 2.849 4.48l0.421 0.718 0.421-0.718c0.723-1.221 1.484-2.442 2.262-3.612l0.587-0.867c0.888-1.289 1.75-2.436 2.574-3.404 1.385-1.627 2.625-2.713 3.748-3.168zM5.766 5.803c-0.654-0.265-0.991-0.112-1.34 0.762-0.61 1.526-0.354 5.37 0.55 9.684l0.211 0.966 0.232 0.977c1.141 4.615 2.782 8.299 3.326 8.299 0.372 0 1.185-0.675 2.153-1.915 0.54-0.692 1.114-1.531 1.708-2.485 0.482-0.774 0.958-1.592 1.416-2.421l0.554-1.023 0.464-0.895-0.486-0.85-0.442-0.756c-0.886-1.495-1.829-2.99-2.787-4.383-0.857-1.245-1.686-2.347-2.469-3.267-1.221-1.434-2.288-2.369-3.090-2.694zM27.574 6.565c-0.349-0.873-0.686-1.026-1.34-0.762-0.803 0.325-1.869 1.26-3.090 2.694-0.783 0.92-1.612 2.022-2.469 3.267-0.767 1.114-1.524 2.294-2.249 3.486l-0.765 1.282-0.702 1.22 0.241 0.466 0.327 0.62c0.593 1.11 1.225 2.219 1.868 3.252 0.594 0.954 1.168 1.793 1.708 2.485 0.968 1.24 1.781 1.915 2.153 1.915 0.544 0 2.185-3.685 3.326-8.299l0.232-0.977c1.072-4.698 1.416-9.011 0.761-10.65z"></path>
</svg>
