<!-- Generated by IcoMoon.io -->
<svg version="1.1" xmlns="http://www.w3.org/2000/svg" width="32" height="32" viewBox="0 0 32 32">
<path d="M7.277 24.246c-2.798-2.010-4.609-5.046-4.609-8.369 0-6.113 5.967-11.077 13.333-11.077s13.333 4.964 13.333 11.077c0 6.113-5.967 11.077-13.333 11.077-1.523 0-3.004-0.205-4.362-0.615-0.123-0.041-0.288-0.041-0.412-0.041-0.247 0-0.494 0.082-0.7 0.205l-2.922 1.682c-0.082 0.041-0.165 0.082-0.247 0.082-0.247 0-0.453-0.205-0.453-0.451 0-0.123 0.041-0.205 0.082-0.328 0.041-0.041 0.412-1.395 0.617-2.215 0-0.082 0.041-0.205 0.041-0.287 0-0.328-0.123-0.574-0.37-0.739zM11.557 14.015c0.956 0 1.714-0.758 1.714-1.714s-0.757-1.714-1.714-1.714c-0.956 0-1.714 0.758-1.714 1.714s0.757 1.714 1.714 1.714zM20.446 14.015c0.956 0 1.713-0.758 1.713-1.714s-0.757-1.714-1.713-1.714c-0.956 0-1.713 0.758-1.713 1.714s0.757 1.714 1.713 1.714z"></path>
</svg>
