<!-- Generated by IcoMoon.io -->
<svg version="1.1" xmlns="http://www.w3.org/2000/svg" width="32" height="32" viewBox="0 0 32 32">
<path d="M5.704 11.456c3.697-3.694 8.005-5.378 9.625-3.755 0.716 0.716 0.784 1.952 0.326 3.429-0.238 0.744 0.699 0.333 0.699 0.333 2.988-1.249 5.595-1.324 6.546 0.037 0.506 0.723 0.458 1.742-0.010 2.92-0.217 0.543 0.064 0.628 0.479 0.75 1.684 0.523 3.558 1.782 3.558 4.006 0 3.683-5.306 8.318-13.285 8.318-6.087 0-12.307-2.95-12.307-7.802 0-2.536 1.606-5.469 4.369-8.236zM21.881 19.112c-0.316-3.188-4.509-5.385-9.363-4.902-4.855 0.479-8.538 3.453-8.223 6.641 0.316 3.191 4.509 5.384 9.363 4.906 4.855-0.482 8.535-3.456 8.223-6.644zM8.216 19.251c1.005-2.037 3.616-3.188 5.928-2.587 2.39 0.618 3.609 2.872 2.635 5.065-0.991 2.244-3.843 3.439-6.26 2.658-2.336-0.754-3.324-3.059-2.302-5.137zM11.835 20.022c-0.75-0.316-1.721 0.010-2.186 0.737-0.472 0.73-0.251 1.602 0.496 1.942 0.757 0.343 1.765 0.017 2.234-0.733 0.462-0.757 0.217-1.623-0.543-1.945zM13.686 19.251c-0.289-0.112-0.648 0.024-0.818 0.309-0.163 0.285-0.071 0.611 0.217 0.73 0.292 0.122 0.669-0.017 0.838-0.309 0.163-0.292 0.058-0.621-0.238-0.73zM21.277 3.899c2.624-0.557 5.463 0.261 7.391 2.393s2.444 5.042 1.626 7.605c-0.188 0.588-0.822 0.913-1.412 0.72s-0.913-0.825-0.723-1.416c0.584-1.813 0.216-3.886-1.154-5.401-1.372-1.518-3.388-2.098-5.255-1.701-0.608 0.129-1.202-0.259-1.334-0.866s0.255-1.205 0.862-1.334zM22.112 7.8c1.277-0.272 2.662 0.126 3.599 1.164s1.188 2.458 0.788 3.701c-0.163 0.507-0.71 0.787-1.219 0.621s-0.784-0.71-0.618-1.222c0.2-0.608 0.075-1.3-0.384-1.81-0.462-0.506-1.137-0.699-1.762-0.567-0.523 0.115-1.035-0.221-1.148-0.74-0.112-0.523 0.221-1.036 0.744-1.147z"></path>
</svg>
