<!-- Generated by IcoMoon.io -->
<svg version="1.1" xmlns="http://www.w3.org/2000/svg" width="32" height="32" viewBox="0 0 32 32">
<path d="M16.001 2.667c7.364 0 13.333 5.97 13.333 13.333s-5.97 13.333-13.333 13.333c-2.445 0-4.737-0.658-6.707-1.807l-6.621 1.807 1.803-6.625c-1.15-1.971-1.808-4.263-1.808-6.709 0-7.364 5.97-13.333 13.333-13.333zM11.458 9.734l-0.268 0.011c-0.173 0.012-0.342 0.054-0.496 0.133-0.116 0.059-0.223 0.145-0.391 0.304-0.159 0.15-0.251 0.281-0.349 0.408-0.493 0.642-0.758 1.43-0.753 2.239 0.003 0.654 0.173 1.29 0.441 1.883 0.544 1.204 1.442 2.476 2.627 3.656 0.285 0.283 0.564 0.57 0.865 0.835 1.471 1.295 3.225 2.23 5.12 2.728 0 0 0.747 0.115 0.758 0.115 0.247 0.013 0.494-0.005 0.742-0.017 0.388-0.020 0.768-0.125 1.111-0.308 0.221-0.117 0.325-0.176 0.51-0.293 0 0 0.057-0.038 0.166-0.12 0.18-0.134 0.291-0.229 0.441-0.384 0.11-0.115 0.205-0.25 0.279-0.403 0.104-0.218 0.209-0.633 0.251-0.978 0.032-0.263 0.022-0.407 0.019-0.497-0.006-0.143-0.124-0.291-0.254-0.354l-0.775-0.349c0 0-1.159-0.505-1.868-0.828-0.074-0.034-0.155-0.049-0.236-0.054-0.178-0.011-0.377 0.035-0.504 0.169-0.007-0.003-0.095 0.074-1.060 1.242-0.053 0.064-0.178 0.202-0.393 0.189-0.033-0.002-0.065-0.007-0.097-0.015-0.087-0.023-0.172-0.053-0.256-0.089-0.165-0.070-0.223-0.097-0.335-0.145-0.77-0.336-1.476-0.786-2.101-1.337-0.167-0.147-0.323-0.306-0.484-0.462-0.56-0.543-1.019-1.121-1.36-1.69-0.019-0.031-0.047-0.076-0.078-0.126-0.056-0.091-0.117-0.199-0.137-0.273-0.050-0.196 0.082-0.354 0.082-0.354s0.325-0.355 0.475-0.548c0.145-0.186 0.27-0.367 0.35-0.497 0.157-0.252 0.207-0.513 0.124-0.715-0.374-0.912-0.76-1.819-1.158-2.721-0.079-0.178-0.312-0.307-0.524-0.332-0.072-0.008-0.144-0.017-0.216-0.021-0.179-0.009-0.358-0.007-0.536 0.006l0.268-0.011z"></path>
</svg>
