<!-- Generated by IcoMoon.io -->
<svg version="1.1" xmlns="http://www.w3.org/2000/svg" width="32" height="32" viewBox="0 0 32 32">
<path d="M4.431 16c0 4.585 2.667 8.533 6.523 10.41l-5.518-15.118c-0.663 1.481-1.005 3.085-1.005 4.708zM16 27.569c1.344 0 2.636-0.236 3.846-0.656l-0.082-0.154-3.559-9.744-3.467 10.082c1.026 0.308 2.123 0.472 3.262 0.472zM17.59 10.574l4.185 12.441 1.159-3.856c0.492-1.6 0.872-2.749 0.872-3.744 0-1.436-0.513-2.42-0.943-3.179-0.595-0.964-1.139-1.774-1.139-2.718 0-1.067 0.8-2.051 1.949-2.051h0.144c-2.132-1.957-4.921-3.041-7.815-3.036-1.916-0-3.802 0.476-5.489 1.385s-3.12 2.224-4.173 3.825l0.738 0.021c1.21 0 3.077-0.154 3.077-0.154 0.636-0.031 0.708 0.882 0.082 0.954 0 0-0.626 0.082-1.333 0.113l4.226 12.533 2.533-7.59-1.805-4.944c-0.404-0.022-0.808-0.057-1.21-0.103-0.626-0.041-0.554-0.995 0.072-0.964 0 0 1.908 0.154 3.046 0.154 1.21 0 3.077-0.154 3.077-0.154 0.626-0.031 0.708 0.882 0.082 0.954 0 0-0.626 0.072-1.333 0.113zM21.815 26c1.75-1.018 3.203-2.477 4.212-4.232s1.541-3.744 1.541-5.768c0-2.010-0.513-3.897-1.415-5.549 0.183 1.817-0.092 3.65-0.8 5.333l-3.539 10.215zM16 29.333c-3.536 0-6.928-1.405-9.428-3.905s-3.905-5.892-3.905-9.428c0-3.536 1.405-6.928 3.905-9.428s5.892-3.905 9.428-3.905c3.536 0 6.928 1.405 9.428 3.905s3.905 5.892 3.905 9.428c0 3.536-1.405 6.928-3.905 9.428s-5.892 3.905-9.428 3.905z"></path>
</svg>
