<!-- Generated by IcoMoon.io -->
<svg version="1.1" xmlns="http://www.w3.org/2000/svg" width="32" height="32" viewBox="0 0 32 32">
<path d="M7.226 26.037c2.343 2.053 5.417 3.297 8.776 3.297 3.362 0 6.432-1.243 8.78-3.297 2.085-2.124-4.796-9.677-8.78-12.686-3.98 3.009-10.866 10.561-8.776 12.686zM19.626 10.030c2.778 3.29 8.316 11.459 6.751 14.347 1.849-2.288 2.958-5.198 2.958-8.372 0-3.711-1.517-7.069-3.967-9.484 0 0-0.030-0.024-0.091-0.047-0.070-0.024-0.169-0.050-0.312-0.050-0.658 0-2.206 0.482-5.339 3.607zM6.728 6.473c-0.063 0.022-0.091 0.046-0.096 0.047-2.448 2.416-3.964 5.773-3.964 9.484 0 3.171 1.109 6.081 2.957 8.37-1.557-2.894 3.977-11.057 6.756-14.344-3.133-3.126-4.684-3.606-5.34-3.606-0.146 0-0.248 0.023-0.312 0.051v-0.002zM16.001 6.612c0 0-3.272-1.914-5.828-2.006-1.003-0.037-1.616 0.328-1.69 0.377 2.383-1.599 4.917-2.317 7.5-2.317h0.018c2.593 0 5.117 0.718 7.518 2.317-0.076-0.051-0.683-0.413-1.689-0.377-2.555 0.091-5.829 1.999-5.829 1.999v0.007z"></path>
</svg>
