<!-- Generated by IcoMoon.io -->
<svg version="1.1" xmlns="http://www.w3.org/2000/svg" width="32" height="32" viewBox="0 0 32 32">
<path d="M27.283 4.308c0.205 0 0.41 0.103 0.513 0.205 0.103 0.205 0.103 0.41 0 0.615l-8.103 14.359 5.128 9.436c0.103 0.205 0.103 0.41 0 0.615-0.103 0.103-0.308 0.205-0.513 0.205h-3.692c-0.513 0-0.821-0.41-1.026-0.718l-5.231-9.539c0.308-0.41 8.205-14.461 8.205-14.461 0.205-0.41 0.513-0.718 1.026-0.718h3.692zM11.898 9.333c0.513 0 0.821 0.41 1.026 0.718l2.564 4.41c-0.205 0.205-4 6.974-4 6.974-0.205 0.308-0.513 0.718-1.026 0.718h-3.59c-0.205 0-0.41-0.103-0.513-0.205-0.103-0.205-0.103-0.41 0-0.615l3.795-6.872-2.462-4.308c-0.103-0.205-0.103-0.41 0-0.615 0.103-0.103 0.308-0.205 0.513-0.205h3.692z"></path>
</svg>
