<!-- Generated by IcoMoon.io -->
<svg version="1.1" xmlns="http://www.w3.org/2000/svg" width="32" height="32" viewBox="0 0 32 32">
<path d="M16.325 5.333c0.712 0.004 2.494 0.021 4.387 0.097l0.671 0.029c1.906 0.090 3.81 0.244 4.755 0.508 1.26 0.354 2.25 1.387 2.585 2.696 0.533 2.079 0.6 6.136 0.608 7.118l0.001 0.203v0.014c0 0 0 0.005 0 0.014l-0.001 0.203c-0.008 0.982-0.075 5.039-0.608 7.118-0.339 1.314-1.33 2.347-2.585 2.696-0.945 0.263-2.849 0.417-4.755 0.508l-0.671 0.029c-1.893 0.076-3.675 0.093-4.387 0.097l-0.326 0.001c0 0-0.005 0-0.014 0l-0.312-0.001c-1.507-0.008-7.809-0.076-9.813-0.634-1.26-0.354-2.25-1.387-2.585-2.696-0.533-2.079-0.599-6.136-0.608-7.118v-0.436c0.008-0.982 0.075-5.039 0.608-7.118 0.339-1.314 1.33-2.347 2.585-2.696 2.004-0.558 8.306-0.626 9.813-0.634h0.653zM13.332 11.332v9.333l8-4.667-8-4.667z"></path>
</svg>
