<!-- Generated by IcoMoon.io -->
<svg version="1.1" xmlns="http://www.w3.org/2000/svg" width="32" height="32" viewBox="0 0 32 32">
<path d="M23.041 3.941c3.959 0.271 5.007 3.121 5.119 3.463l1.729 0.127c0.173 0 0.225 0.241 0.072 0.316-1.764 0.955-2.303 2.894-1.986 4.158 0.119 0.476 0.338 0.919 0.549 1.36 0.409 0.855 0.868 1.891 0.943 3.975 0.155 4.319-3.348 8.233-7.718 8.79 1.56-1.582 2.419-3.258 2.826-4.5 0.808-2.461 0.677-4.421 0.073-5.92-0.596-1.477-1.607-2.388-2.376-2.855-2.243-1.36-4.292-1.454-5.924-1.016 0.62-0.792 1.168-1.602 1.599-2.486 0.779-2.199-0.135-3.797-0.938-4.691-0.256-0.328-0.082-0.874 0.406-0.874 1.879 0 3.751 0.027 5.627 0.154zM4.425 25.476c2.565-2.936 6.284-7.191 9.55-10.867 0.745-0.838 3.691-3.117 7.663-0.71 1.171 0.71 3.241 2.887 1.776 7.348-1.071 3.261-5.876 10.394-21.012 7.791-0.303-0.052-0.682-0.472-0.291-0.917 0.553-0.63 1.353-1.545 2.314-2.645z"></path>
</svg>
