<!-- Generated by IcoMoon.io -->
<svg version="1.1" xmlns="http://www.w3.org/2000/svg" width="32" height="32" viewBox="0 0 32 32">
<path d="M13.204 29.118c-5.819 0-10.537-4.718-10.537-10.538 0-4.861 3.29-9.168 7.765-10.169 5.228-1.17 7.605-2.089 9.436-5.745 1.331 2.58 0.432 4.946 0.002 6.237 6.263-1.505 8.494-4.375 9.031-4.731 0 5.269-1.642 8.602-3.225 10.753 1.968-0.074 2.678-0.645 3.658-0.782-0.433 1.931-2.001 4.653-5.775 6.393-0.916 4.886-5.204 8.583-10.355 8.583zM18.15 20.516c0 0.43-0.071 0.645-0.538 0.645l-4.2 0.003 3.948-4.331c1.146-1.146 1.146-1.72 1.146-3.184 0-0.446-0.064-0.955 0.064-1.401 0.064-0.191-0.064-0.255-0.255-0.191-0.446 0.127-1.21 0.127-2.483 0.127h-5.731c-0.318 0-0.446-0.191-0.318-0.446 0-0.064 0-0.255-0.127-0.255-0.828 0.382-1.019 2.102-0.955 3.184 0 0.573 0.318 0.892 0.764 0.892h4.521l-4.649 4.967c-0.318 0.382-0.637 0.892-0.637 1.592v1.401c0 0.637 0.382 1.019 1.083 1.146h7.984c0.74 0 1.244-0.311 1.244-1.14v-1.505c0-0.278 0-1.29-0.86-1.505z"></path>
</svg>
