<!-- Generated by IcoMoon.io -->
<svg version="1.1" xmlns="http://www.w3.org/2000/svg" width="32" height="32" viewBox="0 0 32 32">
<path d="M17.831 25.195l1.936 0.001 0.637 2.182 3.473-2.182h4.094v-18.003h-10.141v18.002zM19.892 9.147h6.020v14.094h-2.309l-2.306 1.449-0.42-1.446-0.984-0.003v-14.094l-0-0zM16.119 15.43h-4.325c0.144-2.242 0.182-4.269 0.182-6.079h4.229c0 0 0.163-1.867-0.709-1.846h-7.316c0.288-1.086 0.651-2.207 1.085-3.365 0 0-1.99 0-2.668 1.785-0.28 0.736-1.092 3.57-2.537 6.464 0.487-0.053 2.097-0.098 3.045-1.838 0.175-0.487 0.208-0.551 0.425-1.202h2.386c0 0.869-0.099 5.535-0.139 6.078h-4.32c-0.971 0-1.286 1.954-1.286 1.954h5.421c-0.364 4.126-2.316 7.603-5.857 10.352 1.694 0.484 3.382-0.077 4.216-0.819 0 0 1.9-1.729 2.942-5.731l4.461 5.374c0 0 0.654-2.225-0.103-3.309-0.627-0.738-2.319-2.736-3.041-3.46l-1.209 0.961c0.361-1.157 0.577-2.28 0.651-3.366h5.096c0 0-0.007-1.954-0.627-1.954v0.001z"></path>
</svg>
